<svg xmlns="http://www.w3.org/2000/svg" width="234.082" height="198.358" viewBox="0 0 234.082 198.358">
  <g id="_7456_color" data-name="7456_color" transform="translate(0 0.002)">
    <path id="パス_92" data-name="パス 92" d="M130.359,171.689c-.1.216-.212.432-.325.648-2.14,4.063-4.394,6.592-8.708,8.479a16.329,16.329,0,0,1-3.371.873,19.722,19.722,0,0,1-.454-10.933,12.926,12.926,0,0,1-3.15-11.477,4.525,4.525,0,0,1,.676-1.755,3.2,3.2,0,0,1,2.459-1.259,3.444,3.444,0,0,1,2.1.638c4.858-3.39,8.26-9.482,9.912-15.413.5,1.5.817,2.871.817,2.871-.124-.605,1.684,11.24,2,14.27C132.524,161.37,132.776,166.633,130.359,171.689Z" transform="translate(-51.353 -59.548)" fill="#fff"/>
    <path id="パス_93" data-name="パス 93" d="M142.521,196.227c4.1,1.654,8.176,3.37,12.262,5.059a1.633,1.633,0,0,0,2-1.134,1.664,1.664,0,0,0-1.134-2c-4.086-1.689-8.161-3.405-12.262-5.059a1.633,1.633,0,0,0-2,1.134,1.662,1.662,0,0,0,1.134,2Z" transform="translate(-63.579 -81.227)" fill="#fcabb6"/>
    <path id="パス_94" data-name="パス 94" d="M133.128,145.055a.1.1,0,0,0-.006-.022,1.452,1.452,0,0,0-1.341-1.021,1.412,1.412,0,0,0-1.341,1.021,5.254,5.254,0,0,0,.161,1.9q.227,1.558.457,3.115.293,2,.58,3.993.146,1.013.29,2.025.058.438.121.877l.066.486c.023.167,0-.008,0-.035l.035.259a34.308,34.308,0,0,1,.253,7.775,20.756,20.756,0,0,1-4.262,10.752,13.924,13.924,0,0,1-3.837,3.375,15.186,15.186,0,0,1-5.714,1.931,1.4,1.4,0,0,0-.971,1.711,1.426,1.426,0,0,0,1.711.972,17.019,17.019,0,0,0,9.761-4.864,22.458,22.458,0,0,0,5.6-10.629c1.275-5.837.184-11.648-.66-17.453q-.306-2.107-.617-4.212c-.065-.447-.132-.893-.2-1.34-.02-.141-.038-.282-.058-.423-.028-.181.025.426.028.21,0-.192-.042.268-.054.316h-2.683a.152.152,0,0,1,.006.022c.375,1.75,3.058,1.01,2.683-.74Z" transform="translate(-52.918 -60.609)" fill="#211715"/>
    <path id="パス_95" data-name="パス 95" d="M357.881,181c2.847-1.01,5.738-2.047,8.5-3.034.073,1.278.147,2.515.212,3.6-4.8-.037-8.844-.064-10.137-.058Z" transform="translate(-161.55 -74.882)" fill="#211715"/>
    <path id="パス_96" data-name="パス 96" d="M370.442,161.114c.046,4.2.4,8.41.646,12.6a1.422,1.422,0,0,0,1.391,1.391,1.4,1.4,0,0,0,1.391-1.391c-.247-4.194-.6-8.4-.646-12.6A1.392,1.392,0,0,0,370.442,161.114Z" transform="translate(-167.431 -67.231)" fill="#211715"/>
    <path id="パス_97" data-name="パス 97" d="M401.279,160.638c-.081,4.357-.464,8.713-.834,13.053a1.4,1.4,0,0,0,1.391,1.391,1.42,1.42,0,0,0,1.391-1.391c.368-4.34.754-8.695.834-13.053A1.392,1.392,0,0,0,401.279,160.638Z" transform="translate(-180.043 -67.031)" fill="#211715"/>
    <path id="パス_98" data-name="パス 98" d="M373.225,158.523c-.016.191.094-.348.089-.338a1.768,1.768,0,0,1,.26-.377,3.046,3.046,0,0,1,1.449-.732,18.349,18.349,0,0,1,4.257-.638c1.454-.068,2.91-.034,4.364.028a11.946,11.946,0,0,1,4.2.678,1.712,1.712,0,0,1,.824.744c.1.174.029.039,0-.038a.847.847,0,0,1,.006.255c.036-.282-.1.25-.046.163-.522.835-2.241,1.025-3.1,1.139a46.3,46.3,0,0,1-6.56.211,27.788,27.788,0,0,1-3.424-.2,7.542,7.542,0,0,1-1.524-.348l-.062-.022q.27.116-.11-.063a3.911,3.911,0,0,1-.417-.241l-.178-.135c-.087-.107-.035-.191-.034-.081a1.392,1.392,0,0,0-2.782,0c.035,3.441,4.743,3.732,7.233,3.841a46.253,46.253,0,0,0,8.6-.275c1.576-.232,3.392-.708,4.438-2a3.3,3.3,0,0,0-.07-4.231c-1.235-1.5-3.329-1.859-5.159-2.058a41.407,41.407,0,0,0-5.449-.174c-3.459.083-9.216.418-9.592,4.9a1.4,1.4,0,0,0,1.391,1.391,1.42,1.42,0,0,0,1.39-1.393Z" transform="translate(-167.431 -64.634)" fill="#211715"/>
    <path id="パス_99" data-name="パス 99" d="M191.309,2.537c29.372-.035,62.655-.106,92.663-.133a2.43,2.43,0,0,1,2.44,2.434c.012,7.856.058,30.818.091,58.519-1.414.507-2.852,1.02-4.262,1.518,0,2.057-.01,5.986-.016,8.707a3.38,3.38,0,0,0,3.378,3.39h.91c.017,9.6.028,20.388.033,29.138-1.429.509-2.881,1.027-4.306,1.531,0,2.057-.01,5.986-.016,8.707a3.38,3.38,0,0,0,3.378,3.39h.956c.007,5.751.014,7.941.014,12.052a2.616,2.616,0,0,1-2.608,2.62c-25.606.016-66.9.067-95.263.108.032-.044.065-.092.1-.14a22.967,22.967,0,0,0,2.581-6.226,4.628,4.628,0,0,0-.763-3.751,7.379,7.379,0,0,0-2.956-2.857c-.619-.348-6.263-2.475-6.96-2.616a3.42,3.42,0,0,1-1.091-.416c-.045-33.913-.122-82.687-.133-113.426a2.536,2.536,0,0,1,2.531-2.536Z" transform="translate(-87.157 -1.012)" fill="#fff"/>
    <path id="パス_100" data-name="パス 100" d="M251.452,68.292c-5.7-2.179-9.592-5.874-12.871-11.419-1.744,4.817-10.771,16.976-15.255,19.873-.7-1.73-1.262,10.451,1.284,16.288,1.2,3.908,6.129,11,12.884,13.4l.034.082a35.856,35.856,0,0,1,1.345,4.12l-1.344.378a98.75,98.75,0,0,0-13.949,4.979c-.031-.014-1.2-1.546-1.2-1.546-3.661-1.519-6.185-5.246-6.155-8.363a23.457,23.457,0,0,1,1.471-8c1.221-3.518.473-7.2.638-19.975a86.983,86.983,0,0,1,.167-11.593c.532-7.436,3.858-15.745,8.644-20.363,2.07-1.992,2.666-2.925,4.918-4.146l2.99-1.623,1.507-.612c3.945-1.6,7.327-2.3,13.164-2.3a34.035,34.035,0,0,1,21.868,8.55c6.27,6,10.249,16.969,9.747,32.09,0,10.249.682,16.487,1.855,20.687,0,0,.56,2.231.973,4.941a2.018,2.018,0,0,0-.414-.343,2.545,2.545,0,0,0-2.361-.238,2.9,2.9,0,0,0-.85.9c-.174-1.826-1.182-2.046-1.822-2.12a2.434,2.434,0,0,0-2.2.771c-1.159-1.666-2.565-1.494-3.255-1.021a7.983,7.983,0,0,0-1.324,1.4l-.962-.366c-1.217-.464-3.66-1.359-6.2-2.281A11.824,11.824,0,0,0,267.729,96a19.147,19.147,0,0,0,1.873-4.579,3.928,3.928,0,0,0,3.768-.861,7.751,7.751,0,0,0,2.2-2.782,15.133,15.133,0,0,0,1.138-7.794,4.691,4.691,0,0,0-.491-1.886,3.786,3.786,0,0,0-2.627-1.57,3.51,3.51,0,0,0-2.655.7c-5.14-3.469-13.212-10.327-17.273-15.139-.258,1.788,1.873,7.506.194,7.006Q252.606,68.733,251.452,68.292Z" transform="translate(-99.145 -15.749)" fill="#ad7b59"/>
    <path id="パス_101" data-name="パス 101" d="M227.724,100.039c-.556-5.253-.149-10.373.323-9.213,4.484-2.9,13.511-15.057,15.255-19.873,3.722,6.292,8.227,10.2,15.284,12.219,1.681.5-.452-5.217-.194-7.006,4.061,4.811,12.132,11.67,17.273,15.139a3.509,3.509,0,0,1,2.654-.7,3.786,3.786,0,0,1,2.627,1.57,4.691,4.691,0,0,1,.491,1.886,15.129,15.129,0,0,1-1.138,7.794,7.751,7.751,0,0,1-2.2,2.782,3.931,3.931,0,0,1-3.768.861,19.165,19.165,0,0,1-1.874,4.579,10.389,10.389,0,0,1-2.25,3.4c-.638.556-.131,2.218.594,3.839a1.818,1.818,0,0,0-1.173,1.421c-.156.692.438,2.167.69,3.3a33.8,33.8,0,0,1,.67,4.732c.161,2.15-.473,3.666.832,6.1-9.155,4.605-28.28,6.062-33.606-4.468,4.439-2.343,5.86-3.353,5.417-3.507-.482-2.334-2.055-5.718-1.287-4.339-6.823-2.351-11.812-9.506-13.016-13.441a25.341,25.341,0,0,1-1.609-7.077Z" transform="translate(-103.666 -29.868)" fill="#fff"/>
    <path id="パス_102" data-name="パス 102" d="M180,108.063q-.017-14.259-.043-28.518-.024-14.539-.049-29.077-.024-14.394-.039-28.787-.007-7.041-.011-14.085c0-1.132-.016-2.266,0-3.4a1.181,1.181,0,0,1,.836-1.231,4.971,4.971,0,0,1,1.284-.046H183.7l3.233,0Q200.6,2.9,214.27,2.88l28.439-.046q14.174-.023,28.349-.041l6.966-.008h3.382c.708,0,1.836-.255,2.359.37.477.57.245,1.824.246,2.536q0,1.524,0,3.049.016,9.355.031,18.71.022,13.274.041,26.547.005,3.694.01,7.389a1.392,1.392,0,0,0,2.782,0q-.018-14.3-.042-28.592-.017-10.552-.035-21.1-.006-3.327-.011-6.652c0-1.475-.041-2.878-1.192-3.983A4.079,4.079,0,0,0,282.7,0c-1.167-.007-2.335,0-3.5,0q-14.386.015-28.772.038l-29.2.047Q207.111.113,193,.131l-6.81.009-3.348,0a9.159,9.159,0,0,0-3.155.235,3.957,3.957,0,0,0-2.2,1.963,7.279,7.279,0,0,0-.406,3.3q0,3.551,0,7.1.01,14.6.034,29.2.023,14.884.049,29.77.025,14.643.047,29.288.005,3.531.009,7.063a1.392,1.392,0,0,0,2.782,0Z" transform="translate(-86.143 0)" fill="#211715"/>
    <path id="パス_103" data-name="パス 103" d="M297.544,207.007q.006,3.982.012,7.965v1.8a1.716,1.716,0,0,1-.294,1.257,1.294,1.294,0,0,1-.923.429c-.9.079-1.84,0-2.743,0q-10,.008-19.993.02-20.356.025-40.711.061l-22.632.036a1.392,1.392,0,0,0,0,2.782q20.854-.031,41.707-.067,20.952-.032,41.908-.051c1.667,0,3.474.246,4.881-.83s1.587-2.55,1.586-4.191q0-4.608-.012-9.216a1.392,1.392,0,0,0-2.782,0Z" transform="translate(-99.53 -86.541)" fill="#211715"/>
    <path id="パス_104" data-name="パス 104" d="M364.553,159.423q-.009-14.317-.033-28.64a1.392,1.392,0,0,0-2.782,0q.024,14.32.033,28.64A1.392,1.392,0,0,0,364.553,159.423Z" transform="translate(-163.772 -54.473)" fill="#211715"/>
    <path id="パス_105" data-name="パス 105" d="M309.73,105.656a2.359,2.359,0,0,1,3.253.467,4.908,4.908,0,0,1,.366,2.243,17.725,17.725,0,0,1-.091,2.678,9.769,9.769,0,0,1-1.6,4.513c-.72,1.021-2.042,2.226-3.4,1.942-1.748-.365-2.492,2.319-.74,2.683,2.55.532,4.794-.9,6.288-2.874a12.773,12.773,0,0,0,2.276-6.753c.178-2.215.3-5.305-1.581-6.859a5.22,5.22,0,0,0-6.743-.007,1.4,1.4,0,0,0,0,1.968A1.422,1.422,0,0,0,309.73,105.656Z" transform="translate(-137.662 -43.114)" fill="#211715"/>
    <path id="パス_106" data-name="パス 106" d="M305.418,122.454a32.083,32.083,0,0,1-.861,4.127,16.357,16.357,0,0,1-1.67,4.023,1.391,1.391,0,1,0,2.4,1.4,24.675,24.675,0,0,0,2.812-8.814,1.429,1.429,0,0,0-.971-1.711,1.406,1.406,0,0,0-1.711.971Z" transform="translate(-135.791 -51.104)" fill="#211715"/>
    <path id="パス_107" data-name="パス 107" d="M240.777,69.575c-.045.122-.093.244-.141.365-.092.232,0,0,.019-.042-.029.067-.058.134-.089.2-.15.327-.306.652-.471.973-.355.69-.738,1.365-1.136,2.029-.97,1.623-2.029,3.2-3.125,4.735a65.466,65.466,0,0,1-7.32,8.786,21.661,21.661,0,0,1-1.858,1.653c.24-.187-.136.1-.2.142-.123.086-.247.17-.374.25a5.449,5.449,0,0,1-.754.4,1.4,1.4,0,0,0-.5,1.9,1.428,1.428,0,0,0,1.9.5,11.86,11.86,0,0,0,3.24-2.389,47.232,47.232,0,0,0,3.761-4.028,81.893,81.893,0,0,0,7.353-10.086,26.661,26.661,0,0,0,2.376-4.657,1.4,1.4,0,0,0-.971-1.711,1.421,1.421,0,0,0-1.711.971Z" transform="translate(-101.149 -28.85)" fill="#211715"/>
    <path id="パス_108" data-name="パス 108" d="M252.574,70.661a28.265,28.265,0,0,0,9.455,10.018,25.017,25.017,0,0,0,6.55,2.808,1.861,1.861,0,0,0,2.239-.85,3.71,3.71,0,0,0,.206-2.25c-.132-1.032-.353-2.047-.551-3.069-.043-.223-.085-.447-.123-.671-.012-.066-.1-.649-.065-.39a4.55,4.55,0,0,1-.03-1.087l-2.377.985a75.836,75.836,0,0,0,8.227,8.069,100.685,100.685,0,0,0,9.179,7.187c1.483,1.012,2.876-1.4,1.4-2.4a94.893,94.893,0,0,1-8.788-6.9,75.228,75.228,0,0,1-8.053-7.918,1.378,1.378,0,0,0-1.52-.29,1.443,1.443,0,0,0-.855,1.271,14.218,14.218,0,0,0,.58,4.2c.072.37.141.74.2,1.111a.9.9,0,0,1,.03.232c.014.158.03.315.034.474,0,.116,0,.236-.007.356,0-.045.086-.311.012-.116-.029.074-.069.116.024-.031a1.12,1.12,0,0,1,.927-.58c.058-.007.343.112.158.019a2.808,2.808,0,0,0-.429-.126,22.7,22.7,0,0,1-9.941-5.956,29.964,29.964,0,0,1-4.082-5.5A1.392,1.392,0,0,0,252.574,70.661Z" transform="translate(-114.211 -28.864)" fill="#211715"/>
    <path id="パス_109" data-name="パス 109" d="M323.882,145.263a49.188,49.188,0,0,1,1.512,10.585c.043,4.779-5.134,10.02-12.769,8.4" transform="translate(-140.523 -61.127)" fill="none"/>
    <path id="パス_110" data-name="パス 110" d="M250.683,40.065a32.524,32.524,0,0,1,18.873-1.585,31.257,31.257,0,0,1,15.136,7.795,29.677,29.677,0,0,1,7.13,13.042,50.347,50.347,0,0,1,1.681,9.412c.318,3.7.167,7.393.216,11.1.079,6.073.254,12.394,1.89,18.286a1.392,1.392,0,0,0,2.683-.74c-1.439-5.183-1.646-10.577-1.764-15.982-.083-3.823.1-7.647-.151-11.465a56.751,56.751,0,0,0-1.55-10.155,34.183,34.183,0,0,0-7.31-14.561c-3.884-4.323-9.49-7.232-15-8.847a35.11,35.11,0,0,0-22.569,1.017,1.436,1.436,0,0,0-.972,1.712,1.4,1.4,0,0,0,1.712.971Z" transform="translate(-113.245 -14.702)" fill="#211715"/>
    <path id="パス_111" data-name="パス 111" d="M222.061,115.535a9.127,9.127,0,0,1-5.159-5.345,9.416,9.416,0,0,1-.206-3.9,22.581,22.581,0,0,1,1.058-4.766,18.772,18.772,0,0,0,.916-4.125,44.72,44.72,0,0,0,.1-4.589c-.028-2.412-.079-4.824-.089-7.236-.007-1.72.089-3.458.024-5.176-.053-1.391-.145-2.774-.139-4.169.024-5.547.372-11.052,2.228-16.325a29.543,29.543,0,0,1,4.528-8.5,41.3,41.3,0,0,1,3.188-3.366,13.976,13.976,0,0,1,3.24-2.54c1.568-.865.166-3.268-1.4-2.4a15.149,15.149,0,0,0-3.327,2.5c-1.01,1-2.056,1.977-2.992,3.043a29.583,29.583,0,0,0-4.837,7.8,38.36,38.36,0,0,0-2.724,9.179,64.222,64.222,0,0,0-.629,7.9c-.11,3.209.073,6.4.058,9.612-.012,2.819.028,5.638.072,8.456.027,1.723.072,3.454-.034,5.176-.019.307-.043.614-.075.92-.012.1-.087.617-.018.174-.027.174-.053.348-.085.522a12.171,12.171,0,0,1-.427,1.629,29.18,29.18,0,0,0-1.364,5.789,12.123,12.123,0,0,0,.223,5.052,11.73,11.73,0,0,0,6.465,7.1,1.437,1.437,0,0,0,1.9-.5,1.4,1.4,0,0,0-.5-1.9Z" transform="translate(-96.261 -18.037)" fill="#211715"/>
    <path id="パス_112" data-name="パス 112" d="M318.1,18.05l16.13,16.3c1.261,1.275,3.229-.7,1.967-1.967l-16.132-16.3c-1.262-1.275-3.229.7-1.971,1.967Z" transform="translate(-143.051 -6.588)" fill="#211715"/>
    <path id="パス_113" data-name="パス 113" d="M335.2,16.466l7.222,7.3a1.391,1.391,0,1,0,1.967-1.968l-7.225-7.3a1.392,1.392,0,0,0-1.968,1.968Z" transform="translate(-150.372 -5.924)" fill="#211715"/>
    <path id="パス_114" data-name="パス 114" d="M203.966,179.89c.071-.105.147-.206.222-.308.132-.181-.039.05-.058.071.064-.082.128-.163.192-.243.317-.4.642-.787.971-1.173q1.183-1.4,2.431-2.734a25.339,25.339,0,0,1,2.319-2.261c.058-.049.218-.145-.046.035.07-.048.136-.1.209-.143.109-.061.218-.122.329-.18.344-.179.7-.348,1.043-.511,4.359-2.051,8.828-3.795,13.39-5.5,2.192-.82,4.4-1.66,6.666-2.257a1.392,1.392,0,0,0-.74-2.683,112.712,112.712,0,0,0-13.658,5c-2.229.91-4.455,1.836-6.641,2.844a13.615,13.615,0,0,0-1.923.977,15.525,15.525,0,0,0-2.4,2.17,41.218,41.218,0,0,0-4.71,5.492c-1,1.494,1.412,2.888,2.4,1.4Z" transform="translate(-91.002 -68.149)" fill="#211715"/>
    <path id="パス_115" data-name="パス 115" d="M243.775,169.646c4.057,7.979,14.559,9.3,22.533,8.517a43.466,43.466,0,0,0,7.375-1.354,1.392,1.392,0,0,0-.74-2.683,39.016,39.016,0,0,1-12.061,1.417A21.426,21.426,0,0,1,250,172.517a11.092,11.092,0,0,1-3.826-4.275c-.811-1.6-3.213-.19-2.4,1.4Z" transform="translate(-110.106 -70.498)" fill="#211715"/>
    <path id="パス_116" data-name="パス 116" d="M250.627,155.951c.355.978.729,1.949,1.031,2.945a13.3,13.3,0,0,1,.417,1.693c.022.134-.008.3-.014-.123,0,.058.014.119.019.174.01.108.016.217.016.327,0,.049,0,.1,0,.148,0,.252,0-.157.031-.188a.517.517,0,0,0-.031.141c-.022.116-.154.325.082-.174a1.424,1.424,0,0,0,.5,1.9,1.409,1.409,0,0,0,1.9-.5,5.62,5.62,0,0,0-.174-3.926c-.313-1.072-.715-2.113-1.095-3.161a1.392,1.392,0,0,0-2.683.74Z" transform="translate(-112.375 -64.88)" fill="#211715"/>
    <path id="パス_117" data-name="パス 117" d="M298.6,143.176c-5.193-1.974-10.428-3.855-15.67-5.694a1.623,1.623,0,0,0-.863,3.13c5.242,1.839,10.477,3.72,15.67,5.694a1.637,1.637,0,0,0,2-1.134A1.66,1.66,0,0,0,298.6,143.176Z" transform="translate(-126.47 -57.825)" fill="#fcabb6"/>
    <path id="パス_118" data-name="パス 118" d="M301.877,163.951c-.6-1.793-.185-3.14-.319-4.927a33.812,33.812,0,0,0-.67-4.732c-.252-1.134-.847-2.608-.69-3.3.094-.418.5-1.618,1.745-1.441,2.476.352,2.67,1.808,3.249,3.169l.174.406.9-2.222a10.474,10.474,0,0,1,2.295-2.889,2.145,2.145,0,0,1,2.767.436c-1.229,4.98-.617,1.243.9.2a2.663,2.663,0,0,1,1.786-.388c.638.074,1.646.294,1.824,2.12a2.884,2.884,0,0,1,.848-.9,2.548,2.548,0,0,1,2.361.238,2.515,2.515,0,0,1,1.1,1.824l-.012.615a3.435,3.435,0,0,1,1.667-1.208,2.284,2.284,0,0,1,2.43.88,4.618,4.618,0,0,1,.828,2.583,16.1,16.1,0,0,1-.377,4.045,18.682,18.682,0,0,1-1.512,4.9c-1.454,2.889-2.7,3.28-3.966,7.3-5.074-.667-9.332-1-14.491-1.268l0-.432a3.262,3.262,0,0,0-.944-1.839A10.165,10.165,0,0,1,301.877,163.951Z" transform="translate(-135.405 -62.149)" fill="#fff"/>
    <path id="パス_119" data-name="パス 119" d="M301.23,196.951c.727-4.186,1.09-8.521,2.349-12.591l-1.342,1.021c6.047.293,12.074.75,18.07,1.606l-1.021-1.341c-.205,3.383-.589,6.757-.848,10.137a1.4,1.4,0,0,0,1.391,1.391,1.419,1.419,0,0,0,1.391-1.391c.259-3.38.643-6.754.848-10.137a1.391,1.391,0,0,0-1.022-1.341c-6.245-.892-12.509-1.4-18.809-1.706a1.413,1.413,0,0,0-1.341,1.021c-1.258,4.071-1.623,8.4-2.349,12.591a1.431,1.431,0,0,0,.971,1.711,1.4,1.4,0,0,0,1.711-.971Z" transform="translate(-134.598 -76.837)" fill="#211715"/>
    <path id="パス_120" data-name="パス 120" d="M332.879,170.937c1.023-2.345,2.809-4.214,3.793-6.586a21.206,21.206,0,0,0,1.163-4.077,17.885,17.885,0,0,0,.451-4.541,5.767,5.767,0,0,0-1.449-3.8,3.594,3.594,0,0,0-3.785-.918,5.506,5.506,0,0,0-2.692,2.364,14.859,14.859,0,0,0-1.794,3.718c-.392,1.329-.444,3.029.969,3.783,1.43.764,2.922-.032,4-1.024,1.319-1.217-.652-3.18-1.967-1.967a6.7,6.7,0,0,1-.788.531q.017-.182.264.2.09.438.049.05c.053-.156.017-.311.095-.6a11.439,11.439,0,0,1,1.449-3.078c.339-.544.9-1.475,1.662-1.415.976.078,1.182,1.575,1.217,2.3a16.127,16.127,0,0,1-.435,4.045,18.022,18.022,0,0,1-1.05,3.6c-.943,2.152-2.608,3.862-3.549,6.018a1.436,1.436,0,0,0,.5,1.9,1.4,1.4,0,0,0,1.9-.5Z" transform="translate(-147.467 -63.462)" fill="#211715"/>
    <path id="パス_121" data-name="パス 121" d="M330.374,151.7a3.869,3.869,0,0,0-2.934-3.5,3.42,3.42,0,0,0-2.618.241,4.967,4.967,0,0,0-1.678,1.964,21.273,21.273,0,0,0-1.714,4.721c-.424,1.6-.4,3.528,1.075,4.573a3.868,3.868,0,0,0,4.777-.513,1.391,1.391,0,0,0-1.967-1.967c-.092.094-.247.187-.049.07-.09.054-.191.1-.276.163.179-.122.086-.031-.064.012a1.1,1.1,0,0,0-.154.038c-.147.07.22,0,.058,0-.1,0-.209.008-.312.011-.05,0-.1-.012-.154-.008.012,0,.267.058.116.017-.093-.027-.193-.044-.29-.067-.3-.073.116.091-.058-.017a.6.6,0,0,0-.116-.067c-.158-.049.141.089.1.093a.977.977,0,0,1-.174-.174c.006-.009.174.241.1.121s.058.124.048.128-.1-.374-.11-.4c-.049-.142-.006.016,0,.05-.01-.065-.014-.132-.019-.2q-.014-.2-.01-.394c0-.063.01-.128.009-.191,0,.026-.058.219-.012.075s.076-.31.116-.464c.159-.6.313-1.2.49-1.792.089-.3.185-.6.29-.895.049-.138.1-.275.154-.411,0,.009.089-.215.043-.108-.031.072.069-.152.081-.178a11.283,11.283,0,0,1,.808-1.485c.137-.208-.076.058.1-.116.058-.058.272-.251.088-.116.116-.088.29-.123.066-.062.026-.008.21-.061.038-.021s.063,0,.108,0c.061,0,.122.008.183.006-.129,0-.143-.03,0,0s.279.087.42.116-.022-.016-.052-.03c.069.032.137.065.2.1.047.026.094.064.143.086.139.064-.1-.124-.007,0,.058.081.242.339.123.122a3.2,3.2,0,0,0,.2.344c.088.116-.024-.058-.032-.089.019.063.045.123.063.186a1.227,1.227,0,0,0,.032.13c.061.149-.025-.341-.02-.105a1.391,1.391,0,1,0,2.782,0Z" transform="translate(-144.232 -62.293)" fill="#211715"/>
    <path id="パス_122" data-name="パス 122" d="M323.065,149.18a3.5,3.5,0,0,0-1.4-2.349,3.665,3.665,0,0,0-1.971-.571c-2.045-.078-3.394,1.36-4.166,3.094a15.317,15.317,0,0,0-1.175,4.057c-.212,1.5-.253,3.283.9,4.441a3.813,3.813,0,0,0,1.194.729c-.464-.224.165.071.322.111a3.506,3.506,0,0,0,.712.091,3.71,3.71,0,0,0,2.851-1.118,1.422,1.422,0,0,0,0-1.967,1.406,1.406,0,0,0-1.967,0,2.339,2.339,0,0,1-.174.174c.018-.016.147-.145.039-.038a.722.722,0,0,1-.155.089c.209-.119.079-.025,0-.006-.058.016-.445.107-.262.077s-.174.005-.24.007a.928.928,0,0,1-.192-.008c-.006-.006.3.046.16.021-.254-.044-.123-.017.058.052-.14-.053-.283-.111-.421-.17.028.012.209.135.128.048-.027-.03-.083-.037-.112-.066-.211-.2.179.14.049.033-.218-.18.058.182-.024-.012-.021-.048-.188-.354-.092-.145s-.022-.081-.038-.137-.1-.449-.065-.246-.014-.167-.017-.228c-.007-.128-.009-.255-.007-.383a7.953,7.953,0,0,1,.061-.865c-.03.279.013-.069.031-.168q.031-.182.068-.362c.061-.3.133-.6.213-.9.141-.528.327-1.038.492-1.558.107-.336-.122.265-.024.033.031-.075.064-.149.1-.223.107-.237.221-.469.348-.7.071-.125.144-.247.223-.367.034-.053.071-.1.107-.155.123-.177-.131.141.014-.016.083-.09.167-.179.256-.264.141-.137-.2.087.014-.008a1.191,1.191,0,0,0,.178-.1,1.682,1.682,0,0,1,.3-.068,2.675,2.675,0,0,1,.312,0c.062,0,.406.049.111,0s.049.012.116.028.376.129.154.033c-.3-.128.281.2.045.025-.213-.155.2.265.072.082-.1-.152-.013.006.006.032.182.256-.032-.136.03.046a4,4,0,0,1,.152.632,1.4,1.4,0,0,0,1.711.971,1.424,1.424,0,0,0,.971-1.711Z" transform="translate(-141.097 -61.543)" fill="#211715"/>
    <path id="パス_123" data-name="パス 123" d="M315.831,146.575a3.891,3.891,0,0,0-2.778-1.275,3.406,3.406,0,0,0-2.268.9,11.065,11.065,0,0,0-1.407,1.613,7.723,7.723,0,0,0-1.039,1.726,1.391,1.391,0,0,0,2.043,1.571,1.646,1.646,0,0,0,.638-.831c-.228.543-.058.15.014.026.053-.093.11-.185.168-.276.148-.232.309-.456.474-.675.216-.286-.159.2-.009.012.042-.053.085-.107.128-.16.085-.1.17-.208.258-.31.174-.2.358-.406.552-.594.074-.072.152-.138.229-.206.139-.124-.31.2-.159.125a1.647,1.647,0,0,0,.144-.088c.116-.065.3-.089-.124.042.052-.016.1-.038.152-.053s.108-.03.162-.042c.3-.065-.227.008-.11.012.07,0,.142-.008.213-.006.132,0,.294.078-.116-.027.145.037.286.067.429.113.1.038.045.015-.164-.07.046.021.092.045.136.069.07.038.136.084.2.125.235.139-.2-.192-.009-.009.091.086.183.169.27.26a1.392,1.392,0,0,0,1.968-1.968Z" transform="translate(-138.392 -61.139)" fill="#211715"/>
    <path id="パス_124" data-name="パス 124" d="M306.648,154.233a7.815,7.815,0,0,1-1.44-2.357,5.269,5.269,0,0,0-1.611-2.4,4.534,4.534,0,0,0-3.582-.909A3.13,3.13,0,0,0,297.9,150.8a5.98,5.98,0,0,0,.395,3.255,24.913,24.913,0,0,1,.655,3.2,20.387,20.387,0,0,1,.245,2.816c.008.794-.071,1.588-.036,2.382a8.535,8.535,0,0,0,.846,3.351,10.6,10.6,0,0,0,1.057,1.723c.333.453,1.2,1.188,1.26,1.786a1.431,1.431,0,0,0,1.391,1.391,1.4,1.4,0,0,0,1.391-1.391c-.236-2.305-2.486-3.66-3.031-5.9a27.732,27.732,0,0,1-.126-4.124,27.439,27.439,0,0,0-.969-5.978c-.14-.487-.29-.973-.39-1.469-.01-.046-.021-.348-.048-.141a1.455,1.455,0,0,1,.116-.371c-.124.281.212-.206.064-.066-.05.048-.108,0,.008-.009.276-.031-.058-.028.025,0a5.752,5.752,0,0,1,1.035.33,1.418,1.418,0,0,1,.558.638,7.585,7.585,0,0,1,.395.934,10.416,10.416,0,0,0,1.945,3.04,1.4,1.4,0,0,0,1.967,0,1.419,1.419,0,0,0,0-1.967Z" transform="translate(-133.723 -62.492)" fill="#211715"/>
    <path id="パス_125" data-name="パス 125" d="M356.368,182.268q3.746-1.326,7.484-2.672a1.391,1.391,0,0,0-.74-2.683q-3.741,1.339-7.484,2.672a1.392,1.392,0,1,0,.74,2.683Z" transform="translate(-160.774 -74.419)" fill="#211715"/>
    <path id="パス_126" data-name="パス 126" d="M408.983,182.2q3.587-1.709,7.164-3.439a1.4,1.4,0,0,0,.5-1.9,1.428,1.428,0,0,0-1.9-.5q-3.58,1.723-7.164,3.44a1.4,1.4,0,0,0-.5,1.9,1.428,1.428,0,0,0,1.9.5Z" transform="translate(-182.753 -74.134)" fill="#211715"/>
    <path id="パス_127" data-name="パス 127" d="M407.277,200.81q4.029-2.183,8.044-4.388a1.4,1.4,0,0,0,.5-1.9,1.419,1.419,0,0,0-1.9-.5q-4.02,2.2-8.045,4.387a1.4,1.4,0,0,0-.5,1.9A1.421,1.421,0,0,0,407.277,200.81Z" transform="translate(-182.036 -81.563)" fill="#211715"/>
    <path id="パス_128" data-name="パス 128" d="M354.323,183.19q0,2.743-.008,5.486c0,1.878-.331,4.048.759,5.7a5.21,5.21,0,0,0,4.738,2.185h5.039l11.539,0h5.2c1.837,0,3.568.046,5.027-1.262,1.7-1.524,1.546-3.7,1.549-5.783,0-1.955-.005-3.911-.005-5.867a1.392,1.392,0,0,0-2.782,0c0,1.507.006,3.014.006,4.521q0,1.323,0,2.645a3.969,3.969,0,0,1-.254,1.939c-.664,1.239-2.079,1.026-3.266,1.026H359.728a2.874,2.874,0,0,1-1.762-.339,2.025,2.025,0,0,1-.869-1.461,28.678,28.678,0,0,1,0-3.069q.006-2.859.009-5.72a1.392,1.392,0,0,0-2.782,0Z" transform="translate(-160.631 -76.522)" fill="#211715"/>
    <path id="パス_129" data-name="パス 129" d="M355.831,184.449c8.471,0,16.943.116,25.414.174,1.827.011,3.655.024,5.482.024a1.392,1.392,0,0,0,0-2.782c-8.684,0-17.369-.116-26.053-.174-1.614-.01-3.228-.024-4.842-.024A1.392,1.392,0,0,0,355.831,184.449Z" transform="translate(-160.724 -76.44)" fill="#211715"/>
    <path id="パス_130" data-name="パス 130" d="M356.368,108.49q3.746-1.326,7.484-2.672a1.391,1.391,0,0,0-.74-2.683q-3.741,1.339-7.484,2.672a1.392,1.392,0,1,0,.74,2.683Z" transform="translate(-160.774 -43.376)" fill="#211715"/>
    <path id="パス_131" data-name="パス 131" d="M408.983,108.427q3.587-1.711,7.164-3.44a1.4,1.4,0,0,0,.5-1.9,1.427,1.427,0,0,0-1.9-.5q-3.58,1.722-7.164,3.439a1.4,1.4,0,0,0-.5,1.9A1.429,1.429,0,0,0,408.983,108.427Z" transform="translate(-182.753 -43.091)" fill="#211715"/>
    <path id="パス_132" data-name="パス 132" d="M407.277,127.032q4.029-2.182,8.044-4.388a1.4,1.4,0,0,0,.5-1.9,1.419,1.419,0,0,0-1.9-.5q-4.02,2.2-8.045,4.387a1.4,1.4,0,0,0-.5,1.9A1.421,1.421,0,0,0,407.277,127.032Z" transform="translate(-182.036 -50.519)" fill="#211715"/>
    <path id="パス_133" data-name="パス 133" d="M354.323,109.41q0,2.743-.008,5.486c0,1.878-.331,4.048.759,5.7a5.209,5.209,0,0,0,4.738,2.185h5.039l11.539,0h5.2c1.837,0,3.568.045,5.027-1.262,1.7-1.525,1.546-3.7,1.549-5.783,0-1.956-.005-3.911-.005-5.867a1.392,1.392,0,0,0-2.782,0c0,1.507.006,3.014.006,4.521q0,1.323,0,2.645a3.969,3.969,0,0,1-.254,1.939c-.664,1.239-2.079,1.026-3.266,1.026h-4.719l-10.371,0h-7.038a2.874,2.874,0,0,1-1.762-.339,2.025,2.025,0,0,1-.869-1.461,28.67,28.67,0,0,1,0-3.069q.006-2.859.009-5.72a1.392,1.392,0,0,0-2.782,0Z" transform="translate(-160.631 -45.474)" fill="#211715"/>
    <path id="パス_134" data-name="パス 134" d="M355.831,110.673c8.471,0,16.943.116,25.414.174,1.827.012,3.655.024,5.482.024a1.392,1.392,0,0,0,0-2.782c-8.684,0-17.369-.116-26.053-.174-1.614-.01-3.228-.024-4.842-.024a1.392,1.392,0,0,0,0,2.782Z" transform="translate(-160.724 -45.397)" fill="#211715"/>
    <path id="パス_135" data-name="パス 135" d="M263.766,128.725a9.176,9.176,0,0,0-3.741-.179,6.532,6.532,0,0,0-2.8,1.413H259.2a5.819,5.819,0,0,0-6.376-.412c-1.92,1.1-3.378,3.742-1.949,5.8l.831-2.043c-1.31.183-2.052,1.569-2.261,2.748a4.224,4.224,0,0,0,.919,3.668c1.369,1.589,4.563,2.248,6.179.65l-2.325-.614c.426,2.568,3.784,3.228,5.912,3.338a6.9,6.9,0,0,0,6.7-3.706l-.831.638c1.77-.541,3.459-1.437,3.845-3.429.475-2.447-1.076-5.224-3.776-5.206l1.341,1.021a4.8,4.8,0,0,0-3.644-3.683,1.392,1.392,0,0,0-.74,2.683,2.083,2.083,0,0,1,1.7,1.739,1.4,1.4,0,0,0,1.342,1.021,1.068,1.068,0,0,1,1,.86,1.454,1.454,0,0,1,.085.919,2.1,2.1,0,0,1-.09.322c.07-.181-.238.39-.082.179a1.952,1.952,0,0,1-.294.3c.169-.146-.14.09-.158.1-.133.077-.266.148-.406.213q-.137.063.044-.018-.111.043-.224.082c-.2.063-.4.12-.6.187-.673.228-.858.642-1.2,1.188a4.2,4.2,0,0,1-4.019,1.8,7.386,7.386,0,0,1-2.287-.442,4.045,4.045,0,0,1-.692-.372c-.021-.018-.263-.315-.159-.158q-.119-.221-.034-.046a1.522,1.522,0,0,1-.058-.277,1.4,1.4,0,0,0-2.325-.614q-.153.144.088-.058a1.364,1.364,0,0,1-.167.091c.128.032.168-.052-.078,0-.093.02-.361.048-.121.028a3.875,3.875,0,0,1-.544.005,2.369,2.369,0,0,1-.633-.143,2.067,2.067,0,0,1-.569-.339,1.12,1.12,0,0,1-.418-1.174.9.9,0,0,1,.058-.329c.017-.058.151-.452.092-.325.041-.088.112-.334.1-.187q-.18.1.026-.019-.2.1.038.036a1.4,1.4,0,0,0,.832-2.044.73.73,0,0,1-.082-.913,2.493,2.493,0,0,1,1.217-1.174,3.2,3.2,0,0,1,2.823.075,1.453,1.453,0,0,0,1.967,0,4.347,4.347,0,0,1,3.83-.522C264.771,131.79,265.517,129.109,263.766,128.725Z" transform="translate(-112.329 -54.044)" fill="#211715"/>
    <path id="パス_136" data-name="パス 136" d="M225.179,105.9A40.409,40.409,0,0,0,225.7,117a23.944,23.944,0,0,0,3.774,9.588,25.106,25.106,0,0,0,8.846,8.268A24.762,24.762,0,0,0,251.61,137.2c4.47-.3,9.4-1.166,13.083-3.9a1.435,1.435,0,0,0,.5-1.9,1.4,1.4,0,0,0-1.9-.5c-2.9,2.151-6.625,3.023-10.165,3.393-4.111.429-8.438.359-12.3-1.295a21.017,21.017,0,0,1-8.435-7.066,21.238,21.238,0,0,1-3.779-8.463,37.038,37.038,0,0,1-.652-11.563,1.4,1.4,0,0,0-1.391-1.391,1.422,1.422,0,0,0-1.391,1.391Z" transform="translate(-102.021 -43.981)" fill="#211715"/>
    <path id="パス_137" data-name="パス 137" d="M323.882,145.263a49.188,49.188,0,0,1,1.512,10.585c.043,4.779-5.134,10.02-12.769,8.4" transform="translate(-140.523 -61.127)" fill="none"/>
    <path id="パス_138" data-name="パス 138" d="M260.473,269.657c1.287,1.449,3.167,1.8,5.015,1.887a8.765,8.765,0,0,0,5.169-1.217,1.391,1.391,0,0,0-1.4-2.4,3.489,3.489,0,0,1-.329.205c-.076.041-.167.073-.239.12-.157.1.2-.07.016-.006-.341.116-.677.232-1.029.316q-.263.063-.53.11c-.09.016-.18.031-.271.045.241-.037-.063.006-.109.01a8.554,8.554,0,0,1-1.144.042c-.348-.012-.689-.043-1.032-.074-.272-.024.1.023-.064-.006-.081-.014-.162-.026-.242-.041-.158-.03-.315-.064-.471-.106-.174-.046-.34-.1-.507-.166.12.045.132.063.01,0-.069-.037-.14-.072-.207-.111s-.135-.085-.2-.126c-.213-.13.05.069-.058-.04-.135-.136-.277-.26-.406-.406a1.4,1.4,0,0,0-1.967,0,1.424,1.424,0,0,0,0,1.967Z" transform="translate(-116.854 -112.466)" fill="#211715"/>
    <path id="パス_139" data-name="パス 139" d="M201.362,298.069q14.732-.008,29.465-.044l26.75-.062q4.269-.008,8.537-.013l4.753-.005h4.468q.875.111-.341-.769l.19-.7c.1-.218,0-.015-.125.072-.15.1-.3.213-.443.319l-.889.641-1.9,1.371-3.735,2.693q-3.786,2.73-7.575,5.457-1.843,1.326-3.686,2.65a9.1,9.1,0,0,1-1.686,1.141,6.067,6.067,0,0,1-2.27.163l-8.823.015-30.692.063q-8.81.015-17.624.016a1.392,1.392,0,0,0,0,2.782q15.5,0,31-.042l15.9-.034,8.968-.016a12.306,12.306,0,0,0,4.51-.355,20.148,20.148,0,0,0,3.966-2.655q7.589-5.456,15.166-10.928c1.1-.795,2.94-1.647,2.474-3.31-.481-1.72-2.589-1.356-3.947-1.355l-8.929.009q-14.6.019-29.2.061-14.928.038-29.856.053h-4.423a1.392,1.392,0,0,0,0,2.782Z" transform="translate(-89.841 -124.198)" fill="#211715"/>
    <path id="パス_140" data-name="パス 140" d="M326.686,280.419q-19.173,0-38.346.037l-10.766.018a1.392,1.392,0,0,0,0,2.782q19.623-.035,39.246-.051l9.866,0A1.392,1.392,0,0,0,326.686,280.419Z" transform="translate(-127.827 -118.013)" fill="#211715"/>
    <path id="パス_141" data-name="パス 141" d="M238.738,280.537q-15.386.028-30.773.052a1.392,1.392,0,0,0,0,2.782q15.387-.017,30.773-.052A1.392,1.392,0,0,0,238.738,280.537Z" transform="translate(-93.461 -118.063)" fill="#211715"/>
    <path id="パス_142" data-name="パス 142" d="M268.877,256.752c.023.078.026.163.05.24-.151-.489-.016-.11,0,.07.036.4.058.8.072,1.2.047,1.106.064,2.213.076,3.32.027,2.418.02,4.837,0,7.255q-.008,1.148-.019,2.295a4.965,4.965,0,0,1-.021.738,1.437,1.437,0,0,1-.616.995,3.342,3.342,0,0,1-1.406.479c.281-.044-.155.013-.174.015-.13.008-.26.017-.39.02-.269.007-.538-.005-.807-.02-.246-.013-.492-.031-.737-.049-.023,0-.456-.053-.165-.012-.137-.019-.274-.043-.409-.071a5.754,5.754,0,0,1-.676-.18c-.406-.136.2.121-.181-.074-.048-.024-.464-.29-.3-.158-.486-.383-.534-.792-.543-1.59q-.021-1.789-.083-3.575c-.079-2.181-.182-4.359-.185-6.542a1.392,1.392,0,0,0-2.782,0c0,2.1.1,4.2.177,6.307.044,1.177.078,2.353.09,3.531a5.673,5.673,0,0,0,.558,2.847c1.386,2.443,5.145,2.7,7.622,2.181a4.664,4.664,0,0,0,3.546-2.889,7.9,7.9,0,0,0,.268-2.666c.022-2.461.035-4.923.022-7.384-.008-1.44-.021-2.88-.071-4.319a11.62,11.62,0,0,0-.239-2.71,1.392,1.392,0,0,0-2.683.74Z" transform="translate(-116.665 -107.341)" fill="#211715"/>
    <path id="パス_143" data-name="パス 143" d="M264.756,251.844c-.788-3.085-3.249-4.937-6.173-5.867a17.436,17.436,0,0,0-10.1-.215,8.266,8.266,0,0,0-4.09,2.232c-.891.966-.873,2-.9,3.246a32.162,32.162,0,0,0-.058,4.126,2.558,2.558,0,0,0,1.5,2.16,6.07,6.07,0,0,0,2.59.3c.937,0,1.874,0,2.811.019.84.017,1.756.193,2.587.135,1.068-.074,1.73-.947,2.656-1.362a4.869,4.869,0,0,1,2.666-.32,1.4,1.4,0,0,0,1.391-1.391,1.427,1.427,0,0,0-1.391-1.391,7.164,7.164,0,0,0-4.478.915,6.108,6.108,0,0,0-.9.632c-.275.236-.052.162-.566.1-.652-.079-1.313-.088-1.971-.1a33.152,33.152,0,0,0-4.14-.016c.087-.01-.189,0-.184-.078-.006.11.213.165.181.2a4.02,4.02,0,0,0,.014-.852c.025-.575.035-1.151.045-1.726s.016-1.13.031-1.7c.007-.254.014-.509.03-.763,0-.079.017-.163.017-.242,0-.307-.082.217,0,.028.064-.157-.006.111-.058.155-.132.106.273-.286.22-.232a4.827,4.827,0,0,1,.474-.423,4.61,4.61,0,0,1,1.62-.78,16.306,16.306,0,0,1,4.27-.787,14.8,14.8,0,0,1,3.909.514c2.383.589,4.656,1.665,5.31,4.226a1.392,1.392,0,0,0,2.683-.74Z" transform="translate(-109.679 -103.143)" fill="#211715"/>
    <path id="パス_144" data-name="パス 144" d="M53.3,108a16.942,16.942,0,0,0-3.794,2.411c-8.163,4.811-13.605,15.5-12.041,32.394.861,9.3,1.369,14.726.743,19.119-.089.876-1.8,7.314-1.039,9.332,1.169,3.118,2.768,4.557,5.167,6.236,1.212.849,5.3,1.8,7.216.98,0,0,.927-.268,2.1-.646,7.793,5.953,22.548,5.96,30.248,3.429l3.967-1.3.754-.46c1.706-1.038,1.933-2,2.039-4,.081-1.507-1.017-3.42-1.589-4.811-1.979-4.821-3.42-10.109-1.983-15.228a12.926,12.926,0,0,1-3.15-11.477,4.525,4.525,0,0,1,.676-1.755,3.2,3.2,0,0,1,2.459-1.259,3.444,3.444,0,0,1,2.1.638c5.507-3.843,9.143-11.157,10.486-17.777a24.616,24.616,0,0,0-7.386-11.589,30.257,30.257,0,0,0-19.431-7.113C65.155,104.911,58.418,105.58,53.3,108Z" transform="translate(-15.544 -44.243)" fill="#ad7b59"/>
    <path id="パス_145" data-name="パス 145" d="M136.7,315.077a40.3,40.3,0,0,1-.458,6.931c-.261,2.254-.544,4.351-.9,6.608a1.435,1.435,0,0,0,.971,1.711,1.4,1.4,0,0,0,1.713-.973q.566-3.569.98-7.161a41.112,41.112,0,0,0,.479-7.116c-.105-1.78-2.888-1.792-2.782,0Z" transform="translate(-60.676 -132.019)" fill="#211715"/>
    <path id="パス_146" data-name="パス 146" d="M174.737,225.82c-4.712-1.171-8.721-1.96-13.439-2.756.235-1.267.448-2.41.448-2.41-2.13-1.753-4.111-3.236-4.521-5.6a31.932,31.932,0,0,0-.41-4.471c-.607-1.811-2.347-4.916-.967-6.763,1-1.333,2.222-.714,3.014-.367a12.081,12.081,0,0,1,2.506,2.175l.214-.682A12.168,12.168,0,0,1,164,201.428a3.449,3.449,0,0,1,3.62-.891c1.068.3,1.391,1.286,2.931,1.6.7.141,6.341,2.268,6.96,2.616a7.379,7.379,0,0,1,2.956,2.857,4.628,4.628,0,0,1,.763,3.751,22.967,22.967,0,0,1-2.581,6.226,20.078,20.078,0,0,0-3.69,8.289Z" transform="translate(-70.092 -84.315)" fill="#fff"/>
    <path id="パス_147" data-name="パス 147" d="M26.773,233.888a102.54,102.54,0,0,0-12.587,16.636A53.435,53.435,0,0,0,9.628,259.8c-1.391,3.71-2.647,7.464-4.005,11.183A106.706,106.706,0,0,1,.169,283.432c-.821,1.588,1.579,3,2.4,1.4a108.917,108.917,0,0,0,5.068-11.328c1.348-3.544,2.542-7.145,3.837-10.709a55.623,55.623,0,0,1,4.267-9.465,100.906,100.906,0,0,1,6.13-9.162,91.9,91.9,0,0,1,6.868-8.318c1.228-1.3-.736-3.273-1.967-1.967Z" transform="translate(0 -98.273)" fill="#211715"/>
    <path id="パス_148" data-name="パス 148" d="M26.985,286.007c-2.074,7.048-1.807,14.5-3.717,21.574a1.392,1.392,0,0,0,2.683.74c1.913-7.072,1.643-14.526,3.717-21.574A1.392,1.392,0,0,0,26.985,286.007Z" transform="translate(-9.758 -119.952)" fill="#211715"/>
    <path id="パス_149" data-name="パス 149" d="M132.616,136.841c-1.3,5.861-4.057,11.7-8.676,15.662a1.4,1.4,0,0,0,0,1.967,1.42,1.42,0,0,0,1.967,0c4.945-4.246,8-10.607,9.39-16.889.387-1.745-2.3-2.492-2.683-.74Z" transform="translate(-55.514 -57.163)" fill="#211715"/>
    <path id="パス_150" data-name="パス 150" d="M108.5,130.725a27.268,27.268,0,0,0-3.044-13.068,26.026,26.026,0,0,0-8.645-9.6,31.334,31.334,0,0,0-12.883-4.991,48.375,48.375,0,0,0-13.366.032c-4.724.634-9.454,1.977-13.256,4.956a1.4,1.4,0,0,0,0,1.967,1.425,1.425,0,0,0,1.967,0c2.967-2.325,6.832-3.4,10.487-4.012a48.229,48.229,0,0,1,12-.423c8.085.7,16.215,4.951,20.473,12a24.4,24.4,0,0,1,3.486,13.134c-.039,1.791,2.743,1.79,2.782,0Z" transform="translate(-23.919 -43.185)" fill="#211715"/>
    <path id="パス_151" data-name="パス 151" d="M120.083,166.1a4.8,4.8,0,0,0-5.97-.785c-1.961,1.263-2.331,3.75-2.4,5.909a14.092,14.092,0,0,0,4.353,10.755c1.333,1.188,3.308-.773,1.967-1.967a10.886,10.886,0,0,1-3.493-7.206,13.118,13.118,0,0,1,.015-2.5,5.1,5.1,0,0,1,.552-2.155,1.929,1.929,0,0,1,3.009-.082c1.237,1.3,3.2-.67,1.967-1.967Z" transform="translate(-50.157 -69.268)" fill="#211715"/>
    <path id="パス_152" data-name="パス 152" d="M126.97,233.885a60.776,60.776,0,0,1,10.9,5.439,33.611,33.611,0,0,1,3.889,2.8,16.748,16.748,0,0,1,1.294,1.217q.268.283.514.583c-.211-.258.032.043.058.083.093.133.187.264.276.4a28.344,28.344,0,0,1,2.922,6.346c.869,2.447,1.613,4.94,2.275,7.45.268,1.017.525,2.037.758,3.063.069.3.137.61.2.916.02.1.031.206.058.3a1.285,1.285,0,0,1,.158-.9l1.571-.638h0l.614.358q.285.431.205.259a1.4,1.4,0,0,0-1.9-.5,1.425,1.425,0,0,0-.5,1.9,1.339,1.339,0,0,0,.846.662,1.442,1.442,0,0,0,1.571-.638,2.533,2.533,0,0,0,0-1.855c-.174-.821-.372-1.637-.58-2.452-.638-2.541-1.362-5.063-2.2-7.545a39.461,39.461,0,0,0-3.219-7.54,19.327,19.327,0,0,0-6.086-5.814,62.169,62.169,0,0,0-12.884-6.582,1.4,1.4,0,0,0-1.711.972,1.422,1.422,0,0,0,.971,1.711Z" transform="translate(-56.852 -97.28)" fill="#211715"/>
    <path id="パス_153" data-name="パス 153" d="M166.431,204.329c.126-.365-.14.255.067-.159.074-.146.153-.29.235-.431.154-.264.321-.522.493-.775a8.95,8.95,0,0,1,1.115-1.4,2.166,2.166,0,0,1,2.8-.454,12.6,12.6,0,0,0,1.377.97,10.374,10.374,0,0,0,1.565.53c.922.29,1.828.638,2.732.975q1.5.562,2.994,1.159c.066.027.406.174.041.016.073.032.15.058.221.1s.159.074.238.116a6.309,6.309,0,0,1,1.871,1.5,4.748,4.748,0,0,1,1.29,2.919,12.282,12.282,0,0,1-1.256,4.1,38.066,38.066,0,0,1-2.608,4.471,20.818,20.818,0,0,0-2.167,5.205,1.392,1.392,0,0,0,2.683.74,18.291,18.291,0,0,1,2.107-4.9,32.862,32.862,0,0,0,2.543-4.474,14.577,14.577,0,0,0,1.479-5.142,7.136,7.136,0,0,0-1.606-4.26,8.573,8.573,0,0,0-3.311-2.736c-1.091-.482-2.214-.9-3.329-1.321-1.027-.387-2.055-.778-3.1-1.116a7.525,7.525,0,0,1-1.152-.365,20.361,20.361,0,0,0-1.949-1.261,5.034,5.034,0,0,0-5.358,1.194,10.735,10.735,0,0,0-2.7,4.07c-.586,1.7,2.1,2.425,2.683.74Z" transform="translate(-73.776 -83.326)" fill="#211715"/>
    <path id="パス_154" data-name="パス 154" d="M162.35,206.592c-.765-.765-1.521-1.542-2.319-2.274a6.533,6.533,0,0,0-1.552-1.163,4.368,4.368,0,0,0-2.947-.513,3.642,3.642,0,0,0-2.447,2.55c-.6,2.057.406,4.182,1.135,6.061.642,1.658.313,3.415.662,5.207.525,2.7,2.861,4.467,4.857,6.107a1.432,1.432,0,0,0,1.967,0,1.4,1.4,0,0,0,0-1.967c-1.385-1.138-3.145-2.315-3.888-4.016-.568-1.3-.3-3.067-.5-4.536-.221-1.6-1.114-3.009-1.486-4.573a2.393,2.393,0,0,1,.093-1.87c.311-.451.661-.256,1.021-.107a3.284,3.284,0,0,1,.624.345c-.239-.165.041.037.124.108.126.108.25.22.372.332.8.732,1.553,1.507,2.319,2.274a1.392,1.392,0,0,0,1.967-1.967Z" transform="translate(-68.674 -85.244)" fill="#211715"/>
    <path id="パス_155" data-name="パス 155" d="M149.813,243.3a42.83,42.83,0,0,1,1.623-4.848l-1.571.638c6.091.985,12.134,2.151,18.108,3.7L167,241.082q-1.251,8.07-2.624,16.121c-.833,4.913-1.643,9.828-2.724,14.695-.526,2.371-1.1,4.732-1.754,7.072a37.5,37.5,0,0,1-2.145,6.281,6.946,6.946,0,0,1-5.021,4.081,10.136,10.136,0,0,1-6.225-1.141c-4.442-2.325-7.135-7.5-8.3-12.178-.432-1.739-3.116-1-2.683.74,1.22,4.9,3.875,9.752,7.972,12.816,4.03,3.014,9.988,3.742,14.065.482,2.075-1.659,3.066-4.231,3.9-6.674.784-2.308,1.424-4.666,2.01-7.031,1.251-5.043,2.182-10.144,3.057-15.264,1.1-6.413,2.162-12.83,3.158-19.258a1.425,1.425,0,0,0-.971-1.712c-5.974-1.549-12.017-2.714-18.108-3.7a1.427,1.427,0,0,0-1.571.638,48.448,48.448,0,0,0-1.905,5.513c-.514,1.719,2.171,2.454,2.683.74Z" transform="translate(-61.297 -99.495)" fill="#211715"/>
    <path id="パス_156" data-name="パス 156" d="M116.859,193.653c-.669,4.532.334,8.984,1.971,13.209.357.918.754,1.817,1.159,2.714a6.95,6.95,0,0,1,.783,2.521,4.942,4.942,0,0,1-.264,1.913,2.144,2.144,0,0,0-.24.4,3.461,3.461,0,0,1-.85.68c-1.514.948-.116,3.357,1.4,2.4a5.3,5.3,0,0,0,2.652-4.223c.237-2.112-.51-3.833-1.365-5.721-1.815-4.011-3.222-8.722-2.566-13.158a1.437,1.437,0,0,0-.972-1.711,1.4,1.4,0,0,0-1.711.971Z" transform="translate(-52.349 -81.064)" fill="#211715"/>
    <path id="パス_157" data-name="パス 157" d="M43.782,117.142C35.822,124.67,34.169,136.5,35,146.92c.454,5.643,1.275,11.327,1.062,17q-.028.739-.089,1.477-.027.318-.061.638-.019.174-.041.348a.811.811,0,0,1-.024.174c-.152,1.026-.355,2.043-.547,3.062-.249,1.319-.483,2.644-.618,3.98a6.828,6.828,0,0,0,.227,3.158,13.885,13.885,0,0,0,5.9,6.956,10.627,10.627,0,0,0,3.686,1.171,8.576,8.576,0,0,0,4.42-.167,1.435,1.435,0,0,0,.971-1.712,1.4,1.4,0,0,0-1.711-.971,5.657,5.657,0,0,1-2.94.168,12.7,12.7,0,0,1-1.755-.391,5.183,5.183,0,0,1-1.163-.441,10.857,10.857,0,0,1-4.6-5.046,7.712,7.712,0,0,1-.275-.731,1.785,1.785,0,0,1-.046-.224c.051.29,0,0,0-.081a13.754,13.754,0,0,1,.046-1.514c.1-1.148.322-2.286.536-3.42a45.143,45.143,0,0,0,.834-5.834c.286-5.126-.365-10.313-.836-15.409-.541-5.861-.649-11.761.811-17.508a25.625,25.625,0,0,1,6.953-12.5c1.3-1.233-.667-3.2-1.967-1.967Z" transform="translate(-14.544 -49.148)" fill="#211715"/>
    <path id="パス_158" data-name="パス 158" d="M50.29,206.487a17.868,17.868,0,0,0,2.777,11.036,17.118,17.118,0,0,0,6.649,5.508c5.749,2.806,12.488,3.559,18.815,3.211a36.781,36.781,0,0,0,9.328-1.58c1.7-.552.97-3.239-.74-2.683a38.848,38.848,0,0,1-16.23,1.275c-5.326-.591-11.273-2.241-14.839-6.383a11.791,11.791,0,0,1-2.261-4.143,18.438,18.438,0,0,1-.721-6.239c.092-1.789-2.691-1.784-2.782,0Z" transform="translate(-21.128 -86.328)" fill="#211715"/>
    <path id="パス_159" data-name="パス 159" d="M262.833,117.226c-.2.744-.37,1.5-.5,2.255a2.852,2.852,0,0,0-.012,1.24,1.78,1.78,0,0,0,.952,1.159,2.59,2.59,0,0,0,1.233.3c.274-.012.536-.08.805-.116a1.382,1.382,0,0,0,.832-.638,1.422,1.422,0,0,0,.14-1.072,1.406,1.406,0,0,0-.638-.831l-.333-.14a1.4,1.4,0,0,0-.74,0c-.111.015-.22.042-.332.058l.37-.05a1.224,1.224,0,0,1-.3,0l.37.05a1.352,1.352,0,0,1-.315-.092l.332.14a1.514,1.514,0,0,1-.186-.1l.281.218a.473.473,0,0,1-.076-.076l.217.282a.6.6,0,0,1-.052-.094l.14.333a.753.753,0,0,1-.036-.147l.05.37a1.419,1.419,0,0,1,.009-.325l-.05.37a21.837,21.837,0,0,1,.515-2.355,1.449,1.449,0,0,0-.14-1.072,1.391,1.391,0,0,0-1.9-.5,1.439,1.439,0,0,0-.638.832Z" transform="translate(-117.609 -48.897)" fill="#211715"/>
    <path id="パス_160" data-name="パス 160" d="M285.306,106.255c.393,1.279.137,4.219-2.285,4.469-3.2-.019-3.371-3.574-2.294-5.246C281.61,104.11,284.2,103.541,285.306,106.255Z" transform="translate(-125.664 -43.902)" fill="#211715"/>
    <path id="パス_161" data-name="パス 161" d="M244.729,106.255c-.393,1.279-.137,4.219,2.285,4.469,3.2-.019,3.371-3.574,2.294-5.246C248.426,104.11,245.832,103.541,244.729,106.255Z" transform="translate(-109.716 -43.902)" fill="#211715"/>
  </g>
</svg>
