<svg xmlns="http://www.w3.org/2000/svg" width="142.706" height="200" viewBox="0 0 142.706 200">
  <g id="_524_color" data-name="524_color" transform="translate(0.018 0.008)">
    <path id="パス_7" data-name="パス 7" d="M87.723,64.2c4.7-4.666,8.932-8.551,14.438-13.463.148,1.944,1.924,7.272,2.693,7.627.664.307,7.958-3.937,12.483-6.228a43.248,43.248,0,0,1,27.733,23.844,4.186,4.186,0,0,1,6.866.872,7.021,7.021,0,0,1,.626,2.659,21.351,21.351,0,0,1-1.84,10.479,12.456,12.456,0,0,1-2.968,4.262,6.687,6.687,0,0,1-5.264,1.775q-.257,1.856-.629,3.595a7.458,7.458,0,0,1,2.7,2.334,11.038,11.038,0,0,1,1.239,10.69,14.3,14.3,0,0,1-7.9,7.611,16.842,16.842,0,0,1-8.45,1.1c-.154,2.227-.337,4.859-.337,4.859-.2-.058-.39.085-.545.218-1.736,1.491-11.267,9.254-12.289,10.507-.246.835-.706,2.776-1.276,4.51-1.178,2.837-2.663,6.364-3.8,8.753-.793-1.708-2.273-5.35-3.1-7.3-1.021-3.21-1.629-4.774-1.981-5.959-.733-.9-5.846-5.149-9.318-8.027a42.141,42.141,0,0,0,.564-6.235c-10.785-4.485-16.5-15.824-18.137-26.62a6.771,6.771,0,0,1-5.011-1.811,12.456,12.456,0,0,1-2.968-4.262,21.357,21.357,0,0,1-1.84-10.479,7.03,7.03,0,0,1,.626-2.659,4.189,4.189,0,0,1,6.576-1.166C80.947,71.075,84.451,67.451,87.723,64.2Z" transform="translate(-36.596 -25.757)" fill="#fff"/>
    <path id="パス_8" data-name="パス 8" d="M196.079,154.135a13.286,13.286,0,0,0-1.958,6.3c-.094,1.949.406,1.77,1.356,3.379a7.433,7.433,0,0,0,4.734,2.912c2.205.48,5.659.3,7.194-1.161,1.379-1.311,2.6-5.445,2.716-7.288a8.957,8.957,0,0,0-1.751-5.71c-.685-.926-2.489-3.477-5.507-3.474C199.528,149.1,197.415,152.082,196.079,154.135Z" transform="translate(-100.387 -77.069)" fill="#f9d2cf"/>
    <path id="パス_9" data-name="パス 9" d="M117.419,195.831a41.024,41.024,0,0,1-.441,5.314,29.544,29.544,0,0,1-.611,3.523,2.87,2.87,0,0,1-1.782,1.945c-.938.412-1.889.8-2.829,1.21a1.19,1.19,0,0,0-.424,1.617,1.212,1.212,0,0,0,1.617.424c.542-.238,1.086-.478,1.631-.714.052-.022.454-.19.193-.084l.167-.067a10.455,10.455,0,0,0,1.166-.507,5.085,5.085,0,0,0,2.466-2.948,23.269,23.269,0,0,0,.685-3.771,45.846,45.846,0,0,0,.525-5.943A1.183,1.183,0,0,0,117.419,195.831Z" transform="translate(-57.442 -100.611)" fill="#211916"/>
    <path id="パス_10" data-name="パス 10" d="M118.089,305.866c0-1.461,0-2.836-.006-4.142a39.4,39.4,0,0,0,8.2,1.822c1.532.183,6.933-1.474,8.031-2.241,6.3-4.4,8.764-18.5,8.326-24.993-.953-14.915-1.339-17.423-7.4-33.938A37.889,37.889,0,0,0,132.443,236c-2.5-4.206-6.5-7.235-10.539-9.928a133.9,133.9,0,0,0-24.082-12.731c-.307-1.238-3.068-6.461-4-8.919-.066-.175-.155-.371-.331-.424-.194-.058-.383.085-.536.218-1.706,1.491-11.068,9.254-12.073,10.507-.242.835-.694,2.777-1.254,4.51-1.158,2.837-2.616,6.364-3.735,8.753-.779-1.708-2.233-5.35-3.043-7.3-1-3.21-1.6-4.774-1.946-5.959-1-1.252-10.367-9.016-12.073-10.507-.152-.133-.343-.276-.536-.218-.177.053-.265.249-.331.424-.96,2.524-3.847,7.966-4.022,9.012a133.9,133.9,0,0,0-23.851,12.638c-4.038,2.693-8.04,5.722-10.539,9.928a37.847,37.847,0,0,0-2.793,6.373c-6.2,16.891-11.06,45.78-14.39,63.492" transform="translate(-1.211 -107.056)" fill="#66bd6f"/>
    <path id="パス_11" data-name="パス 11" d="M199.931,125.493a54.6,54.6,0,0,1-1.113,11.176,1.21,1.21,0,0,0,.542,1.335c3.955,2,4.942,7.26,3.6,11.153-1.418,4.108-5.332,6.988-9.431,8.034a15.748,15.748,0,0,1-8.25-.148,1.183,1.183,0,0,0-.628,2.279,17.823,17.823,0,0,0,15.84-2.982,13.449,13.449,0,0,0,5.072-13.587,10.338,10.338,0,0,0-5.01-6.789l.542,1.335a57.746,57.746,0,0,0,1.2-11.8,1.183,1.183,0,0,0-2.364,0Z" transform="translate(-95.151 -64.403)" fill="#211916"/>
    <path id="パス_12" data-name="パス 12" d="M179.043,195.828a45.85,45.85,0,0,0,.525,5.943,21.3,21.3,0,0,0,.727,3.89,5.1,5.1,0,0,0,2.668,2.949c.208.1.422.189.636.274.107.043.542.213.164.057.217.09.431.188.647.283.581.257,1.16.516,1.749.754a1.19,1.19,0,0,0,1.454-.826,1.211,1.211,0,0,0-.825-1.454c-.291-.118.252.11-.121-.049-.129-.055-.257-.111-.385-.167l-.743-.327c-.43-.19-.868-.359-1.3-.547a2.863,2.863,0,0,1-1.782-1.945,29.964,29.964,0,0,1-.611-3.523,40.857,40.857,0,0,1-.443-5.314,1.183,1.183,0,0,0-2.364,0Z" transform="translate(-92.501 -100.608)" fill="#211916"/>
    <path id="パス_13" data-name="パス 13" d="M239.151,402.548q0,1.748,0,3.5a1.182,1.182,0,1,0,2.364,0q0-1.748,0-3.5a1.182,1.182,0,0,0-2.364,0Z" transform="translate(-123.9 -207.234)" fill="#211916"/>
    <path id="パス_14" data-name="パス 14" d="M53.441,220.73a139.28,139.28,0,0,0-23.325,11.931,49.252,49.252,0,0,0-9.517,7.354,22.49,22.49,0,0,0-3.527,4.842,48.056,48.056,0,0,0-2.512,5.959,172.531,172.531,0,0,0-5.6,19.135C7.2,277.2,5.679,284.5,4.237,291.816c-1.311,6.667-2.541,13.35-3.8,20.026l-.416,2.187a1.213,1.213,0,0,0,.825,1.454,1.193,1.193,0,0,0,1.453-.827c1.231-6.432,2.407-12.873,3.652-19.3,1.4-7.226,2.869-14.44,4.54-21.608,1.532-6.569,3.207-13.126,5.368-19.52,1.178-3.488,2.364-7.137,4.479-10.183a31.127,31.127,0,0,1,8.355-7.623A133.839,133.839,0,0,1,51.2,224.19q1.428-.61,2.872-1.182a1.219,1.219,0,0,0,.826-1.454,1.191,1.191,0,0,0-1.454-.825Z" transform="translate(0 -115.533)" fill="#211916"/>
    <path id="パス_15" data-name="パス 15" d="M62.5,315.138a145.037,145.037,0,0,1,1.724,20.643c.079,5.1.049,10.194.022,15.288q-.03,5.227-.036,10.452a1.183,1.183,0,0,0,2.364,0c0-5.778.059-11.555.068-17.332.009-5.855,0-11.721-.436-17.561q-.451-6.087-1.424-12.119a1.19,1.19,0,0,0-1.454-.825,1.21,1.21,0,0,0-.825,1.454Z" transform="translate(-32.263 -162.712)" fill="#211916"/>
    <path id="パス_16" data-name="パス 16" d="M198.414,223.008a135.811,135.811,0,0,1,17.512,8.506c2.765,1.6,5.488,3.277,8.126,5.081a36.157,36.157,0,0,1,6.578,5.541,24.194,24.194,0,0,1,4.436,7.759q1.649,4.317,3.181,8.682a79.068,79.068,0,0,1,3.4,12.118,136.234,136.234,0,0,1,1.452,15.137,1.209,1.209,0,0,0,1.182,1.182,1.192,1.192,0,0,0,1.182-1.182c-.312-4.833-.571-9.692-1.321-14.482a71.113,71.113,0,0,0-3.093-11.883c-.967-2.844-2.008-5.663-3.058-8.476a33.968,33.968,0,0,0-4.278-8.8c-3.738-4.968-9.282-8.351-14.536-11.507a139.726,139.726,0,0,0-20.135-9.956,1.19,1.19,0,0,0-1.454.825A1.21,1.21,0,0,0,198.414,223.008Z" transform="translate(-102.788 -115.533)" fill="#211916"/>
    <path id="パス_17" data-name="パス 17" d="M131.118,226.164c-.551-1.193-1.055-2.407-1.561-3.62-.53-1.271-1.139-2.538-1.561-3.85-.435-1.352-.9-2.7-1.356-4.038a5.608,5.608,0,0,0-.985-2.21A48.036,48.036,0,0,0,122,209.2c-1.724-1.465-3.466-2.911-5.208-4.357l-2.156-1.79a6.36,6.36,0,0,0-1.944-1.421c-1.055-.291-1.674.5-2.025,1.348-.159.389-.36.849-.6,1.37-.523,1.133-1.075,2.254-1.621,3.376-.477.981-.961,1.962-1.39,2.966a3.085,3.085,0,0,0-.418,2.054,9.436,9.436,0,0,0,.9,1.83c.559,1.008,1.148,2,1.749,2.982a63.891,63.891,0,0,0,5.183,7.618,1.909,1.909,0,0,0,2.36.492c.83-.443,1.182-1.625,1.589-2.418q1.33-2.592,2.69-5.167c.712-1.343-1.33-2.539-2.041-1.193q-1.083,2.042-2.141,4.1-.516,1-1.028,2l-.2.391-.1.2q-.282.443.2-.032c.519-.148.456.235.345-.049a1.269,1.269,0,0,0-.175-.225c-1.492-1.942-2.832-4.006-4.125-6.083-.989-1.588-1.994-3.193-2.825-4.871a3.142,3.142,0,0,0-.136-.284c-.079-.126.074.3.022.045-.024-.115.062.4-.009.414.015,0,.1-.337.11-.368.046-.133.1-.263.153-.394-.1.251.105-.239.131-.3.2-.459.421-.913.64-1.367.549-1.148,1.114-2.288,1.664-3.436.255-.533.507-1.069.749-1.608q.16-.355.311-.712c.071-.166.143-.333.21-.5.115-.29.127-.139-.083-.025l-.6.161h.194l-.6-.161a5.139,5.139,0,0,1,.788.6q.522.437,1.046.871l2.845,2.364c2,1.66,3.995,3.318,5.945,5.032a15.923,15.923,0,0,1,1.776,1.671l-.3-.522a103.105,103.105,0,0,0,5.2,13.543,1.192,1.192,0,0,0,1.617.424,1.21,1.21,0,0,0,.424-1.617Z" transform="translate(-55.194 -104.284)" fill="#211916"/>
    <path id="パス_18" data-name="パス 18" d="M154.155,227.389c1.071-2.254,2.043-4.555,3.011-6.855a32.1,32.1,0,0,0,1.33-3.551c.3-1.043.552-2.1.856-3.139l-.3.522a13.608,13.608,0,0,1,1.467-1.4c.886-.788,1.791-1.558,2.7-2.325,2.01-1.7,4.038-3.38,6.065-5.062l1.259-1.047.46-.386a1.927,1.927,0,0,1,.454-.322l-.6.161h.194l-.6-.161c-.216-.117-.137-.256-.126-.08a1.326,1.326,0,0,0,.134.324q.157.376.321.749c.213.482.435.959.66,1.436.492,1.044,1,2.079,1.507,3.118.229.474.458.949.682,1.428.089.19.177.38.263.57.039.087.078.174.117.262.023.049.169.4.063.143.093.229.148.5.253.717.042.087-.027.3-.02-.174,0,.171.058-.382.03-.222-.047.264.057-.086.013-.017-.345.55-.6,1.179-.926,1.747-.518.914-1.056,1.817-1.6,2.713-1.274,2.08-2.6,4.133-4.047,6.1-.2.268-.394.535-.6.8.031-.04.01-.128-.084.106q-.165.148-.057.1a.515.515,0,0,1,.705.183,6.624,6.624,0,0,0-.6-1.173q-.28-.548-.561-1.094-1.193-2.321-2.413-4.629c-.712-1.345-2.753-.152-2.041,1.193q1.175,2.216,2.322,4.45.524,1.02,1.046,2.042a1.952,1.952,0,0,0,2.2,1.267,2.765,2.765,0,0,0,1.522-1.253q.574-.748,1.118-1.517c.791-1.113,1.548-2.25,2.285-3.4,1.2-1.867,2.376-3.762,3.414-5.723a3.845,3.845,0,0,0,.64-1.674,5.727,5.727,0,0,0-.735-2.139c-.958-2.122-2.049-4.181-3-6.3a12.825,12.825,0,0,0-.581-1.371,1.606,1.606,0,0,0-2.444-.5c-.522.373-1,.826-1.492,1.236-3.112,2.59-6.259,5.144-9.3,7.82-.522.46-1.057.916-1.539,1.419a2.649,2.649,0,0,0-.636,1.218c-.231.851-.449,1.706-.689,2.554a43.26,43.26,0,0,1-1.951,5.05c-.7,1.643-1.415,3.283-2.182,4.9a1.215,1.215,0,0,0,.424,1.617,1.192,1.192,0,0,0,1.617-.424Z" transform="translate(-78.697 -104.316)" fill="#211916"/>
    <path id="パス_19" data-name="パス 19" d="M151.941,251.543q0,17.361.122,34.722.089,16.114.193,32.227c.021,3.644.044,7.288.044,10.933a1.183,1.183,0,0,0,2.364,0c0-7.94-.073-15.881-.122-23.821q-.109-17.645-.193-35.29-.038-9.384-.044-18.769a1.183,1.183,0,0,0-2.364,0Z" transform="translate(-78.445 -130.614)" fill="#211916"/>
    <path id="パス_20" data-name="パス 20" d="M75.206,26.79c-2.892,6.669-4.349,16.4-1.7,23.38A4,4,0,0,1,78.122,51.2C90.49,37.9,93.447,35.189,103.562,26.165c.148,1.944,1.924,7.272,2.693,7.627.664.306,7.942-3.928,12.469-6.22A41.924,41.924,0,0,1,146.4,51.343,7.108,7.108,0,0,1,150.711,50c.556-8.793-1.07-20.234-4.239-25.191-2.959-4.629-11.251-12.031-16.771-12.958l-4.925-.827-.75-.975c-5.065-6.581-13.285-7.576-20.257-7.721S84.683,6.364,83.17,7.959a18.09,18.09,0,0,1,7.141,2.216,35.255,35.255,0,0,0-15.1,16.615Z" transform="translate(-37.953 -1.183)" fill="#ad7b59"/>
    <path id="パス_21" data-name="パス 21" d="M88.429,16.029A37.39,37.39,0,0,0,76.315,26.986,37.078,37.078,0,0,0,70.2,42.269a34.852,34.852,0,0,0-.327,9.956,1.219,1.219,0,0,0,1.182,1.182,1.189,1.189,0,0,0,1.182-1.182A34.94,34.94,0,0,1,82.51,23.356a35.406,35.406,0,0,1,7.113-5.289,1.183,1.183,0,0,0-1.193-2.041Z" transform="translate(-36.057 -8.055)" fill="#211916"/>
    <path id="パス_22" data-name="パス 22" d="M150.008,125.225c.424,1.615.762,3.25,1.089,4.888.038.191.074.383.114.574.006.031.041.229.015.064-.029-.181,0,.078.006.116v.181c0,.28.028-.164,0-.018-.019.063-.014.053.015-.029a.379.379,0,0,1,.115-.182c.094-.108.141-.079-.008-.023.148-.056-.077.029-.1.037-.085.026-.171.043-.258.062.1-.021.157-.009.026-.014-.074,0-.148,0-.223,0-.037,0-.233-.026-.049,0s-.032-.008-.073-.016c-.111-.02-.222-.041-.334-.057a1.216,1.216,0,0,0-1.454.826,1.2,1.2,0,0,0,.825,1.454,4.475,4.475,0,0,0,2.387-.049,2.134,2.134,0,0,0,1.375-1.261,2.537,2.537,0,0,0,.1-1.182c-.124-1-.364-1.985-.572-2.966-.214-1.015-.446-2.027-.71-3.031a1.182,1.182,0,0,0-2.279.628Z" transform="translate(-76.868 -63.906)" fill="#211916"/>
    <path id="パス_23" data-name="パス 23" d="M86.018,129.824A45.469,45.469,0,0,0,89.745,147,31.992,31.992,0,0,0,100.9,160.927a26.217,26.217,0,0,0,9.772,3.977,1.214,1.214,0,0,0,1.454-.825,1.193,1.193,0,0,0-.825-1.454,24.953,24.953,0,0,1-14.605-8.68,36.479,36.479,0,0,1-7.168-15.055,42.844,42.844,0,0,1-1.146-9.066A1.183,1.183,0,0,0,86.018,129.824Z" transform="translate(-44.561 -66.65)" fill="#211916"/>
    <path id="パス_24" data-name="パス 24" d="M76.337,98.316a5.466,5.466,0,0,0-6.3-.914c-2.257,1.189-2.906,3.557-3.043,5.93a20.876,20.876,0,0,0,3.953,13.813,8.569,8.569,0,0,0,6.833,3.487c1.517-.049,1.524-2.413,0-2.364-3.851.122-6.137-3.7-7.266-6.879a20.353,20.353,0,0,1-1.172-5.93c-.07-1.632-.224-3.953.936-5.274a3.043,3.043,0,0,1,4.4-.2c1.107,1.043,2.781-.626,1.671-1.671Z" transform="translate(-34.612 -50.063)" fill="#211916"/>
    <path id="パス_25" data-name="パス 25" d="M220.814,99.988a3.043,3.043,0,0,1,3.992-.2c1.4,1.128,1.367,3.246,1.356,4.884-.024,3.743-1.043,7.974-3.42,10.954a6.307,6.307,0,0,1-5.037,2.638c-1.521-.049-1.52,2.315,0,2.364,5.156.164,8.255-4.718,9.691-9.038a22.456,22.456,0,0,0,1.129-7.366c-.035-2.389-.373-4.856-2.4-6.387a5.427,5.427,0,0,0-6.979.476c-1.11,1.045.564,2.714,1.671,1.671Z" transform="translate(-111.935 -50.063)" fill="#211916"/>
    <path id="パス_26" data-name="パス 26" d="M187.516,21.6a20.922,20.922,0,0,1,8.092,3.853,28.381,28.381,0,0,1,6.85,6.883,21.668,21.668,0,0,1,3.132,6.353,49.272,49.272,0,0,1,1.724,8.623,64.892,64.892,0,0,1,.376,10.775c-.077,1.521,2.287,1.516,2.364,0a60.751,60.751,0,0,0-1.97-19.293,23.884,23.884,0,0,0-3.183-7.072,31.871,31.871,0,0,0-7.078-7.562c-2.8-2.134-6.156-4.22-9.678-4.841a1.216,1.216,0,0,0-1.454.825,1.192,1.192,0,0,0,.825,1.454Z" transform="translate(-96.639 -9.79)" fill="#211916"/>
    <path id="パス_27" data-name="パス 27" d="M123.7,49.586c-3.2,1.576-6.286,3.354-9.448,4.993-.64.331-1.28.658-1.93.964q-.208.1-.418.192l-.171.075c-.157.069.194-.078.044-.019-.182.071-.364.136-.55.2-.124.041-.257,0-.069.028.153.025.148-.014.071-.015-.041,0,.291.049.363.081.035.015.348.233.263.158s0-.069-.005.009.055.094-.01-.02c-.041-.072-.09-.14-.131-.211a9.56,9.56,0,0,1-.757-1.694q-.492-1.323-.866-2.688c-.114-.416-.22-.834-.31-1.256-.041-.191-.077-.383-.111-.575-.012-.069-.023-.139-.032-.208.026.2.01.06,0-.057a1.2,1.2,0,0,0-2.019-.837c-6.594,5.883-13.027,11.918-19.178,18.263q-3.207,3.313-6.356,6.683c-1.04,1.109.628,2.784,1.671,1.671,6.385-6.806,12.919-13.456,19.8-19.764q2.848-2.61,5.738-5.179l-2.019-.837a20.449,20.449,0,0,0,1.257,5,19.558,19.558,0,0,0,.985,2.37,2.476,2.476,0,0,0,1.334,1.4,2.231,2.231,0,0,0,1.383-.17c.654-.246,1.289-.551,1.916-.859,1.669-.821,3.3-1.714,4.94-2.6,1.928-1.039,3.851-2.091,5.815-3.06a1.193,1.193,0,0,0,.424-1.617,1.206,1.206,0,0,0-1.617-.424Z" transform="translate(-42.499 -24.558)" fill="#211916"/>
    <path id="パス_28" data-name="パス 28" d="M135.055,8.03C130.7,2.43,123.733.529,116.944.085a36.6,36.6,0,0,0-9.037.477,61.566,61.566,0,0,0-9.074,2.4c-1.355.467-2.7.979-4,1.576a7.642,7.642,0,0,0-2.3,1.4,1.2,1.2,0,0,0,.837,2.019,17.061,17.061,0,0,1,6.542,2.055c1.333.734,2.527-1.306,1.193-2.041a19.987,19.987,0,0,0-7.735-2.378L94.2,7.614a1.469,1.469,0,0,0,.117-.11c.119-.152-.123.082-.068.049.133-.078.258-.176.391-.257.355-.215.726-.4,1.1-.58.212-.1.425-.2.64-.3.315-.139.287-.126.6-.256q.849-.345,1.713-.654A62.966,62.966,0,0,1,107.221,3.1a33.607,33.607,0,0,1,8.384-.72,35.133,35.133,0,0,1,9.052,1.4,17.5,17.5,0,0,1,8.725,5.92,1.188,1.188,0,0,0,1.671,0,1.212,1.212,0,0,0,0-1.671Z" transform="translate(-47.924 0)" fill="#211916"/>
    <path id="パス_29" data-name="パス 29" d="M118.53,111.487c-.547,1.78-.191,5.877,3.178,6.225,4.451-.027,4.688-4.979,3.19-7.308C123.671,108.5,120.063,107.7,118.53,111.487Z" transform="translate(-61.125 -56.2)" fill="#211916"/>
    <path id="パス_30" data-name="パス 30" d="M183.207,111.489c.547,1.783.191,5.884-3.178,6.233-4.451-.027-4.689-4.985-3.19-7.317C178.066,108.5,181.674,107.7,183.207,111.489Z" transform="translate(-90.922 -56.199)" fill="#211916"/>
    <path id="パス_31" data-name="パス 31" d="M180.847,59.5a42.693,42.693,0,0,1,16.411,14.776,43.277,43.277,0,0,1,3.048,5.578,1.191,1.191,0,0,0,1.617.424,1.21,1.21,0,0,0,.424-1.617,45.034,45.034,0,0,0-14.712-17.8,43.238,43.238,0,0,0-5.595-3.4C180.687,56.77,179.489,58.809,180.847,59.5Z" transform="translate(-93.307 -29.096)" fill="#211916"/>
    <path id="パス_32" data-name="パス 32" d="M140.534,165.357l.148-.129c.173-.157-.193.132,0,0,.152-.1.3-.206.461-.3a6.128,6.128,0,0,1,1.15-.532,14.035,14.035,0,0,1,8.444,0,5.98,5.98,0,0,1,1.108.506c.163.093.315.2.473.3.224.143-.052-.047.008,0s.117.1.174.152c1.117,1.029,2.793-.64,1.671-1.671-1.987-1.83-5.066-2.3-7.656-2.3s-5.667.472-7.653,2.3c-1.121,1.034.554,2.7,1.671,1.671Z" transform="translate(-71.626 -83.317)" fill="#211916"/>
    <path id="パス_33" data-name="パス 33" d="M177.688,95.154c2.628.383,5.768-.846,5.009-2.16-.373-.749-2.94.1-4.466-.105-1.832-.246-3.245-1.925-4.269-1.093C173.126,92.475,175.081,94.775,177.688,95.154Z" transform="translate(-89.782 -47.272)" fill="#211916"/>
    <path id="パス_34" data-name="パス 34" d="M121.7,95.407c-2.586.6-5.819-.352-5.175-1.727.308-.778,2.938-.15,4.441-.485,1.8-.4,3.07-2.194,4.16-1.453C126.019,92.349,124.266,94.807,121.7,95.407Z" transform="translate(-60.166 -47.273)" fill="#211916"/>
    <path id="パス_35" data-name="パス 35" d="M254.857,365.321a19.916,19.916,0,0,1-1.649,9.42,18.473,18.473,0,0,1-2.5,4.11,12.454,12.454,0,0,1-3.142,2.955,14.129,14.129,0,0,1-3.546,1.249,15.019,15.019,0,0,1-3.61.589,18.886,18.886,0,0,1-4.261-.56,23.717,23.717,0,0,1-4.5-1.436,11.424,11.424,0,0,1-6.57-7.675c-.335-1.483-2.615-.855-2.28.628a13.547,13.547,0,0,0,6.441,8.47,24.513,24.513,0,0,0,9.982,2.881,18.785,18.785,0,0,0,8.56-1.643,11.264,11.264,0,0,0,3.668-2.745,20.147,20.147,0,0,0,3.17-4.376,22.246,22.246,0,0,0,2.591-11.868,1.21,1.21,0,0,0-1.182-1.182,1.192,1.192,0,0,0-1.182,1.182Z" transform="translate(-115.588 -188.34)" fill="#211916"/>
    <path id="パス_36" data-name="パス 36" d="M176.514,192.694c-1.684-2.546-5.925-9.015-6.691-10.883a3.169,3.169,0,0,1,.8-2.46,2.6,2.6,0,0,1,3.241.489l.462.53-.56-.778c-1.477-2.052-1.794-2.911-1.855-4.149-.056-1.145,1.226-2.187,2.38-2.286a4.487,4.487,0,0,1,3.56,1.573,2.988,2.988,0,0,1-1.109-4.284c.522-.941,1.962-1.115,3.468-.625a8.593,8.593,0,0,1,3.111,2.247l1.6,1.842.1-.893c.182-1.641,2.7-1.923,3.356-1.8a6.208,6.208,0,0,1,2.923,1.948c3.727,3.8,7.584,7.8,9.7,12.666,1,2.31,1.028,7.613.492,11.307-1.474,5.484-2.09,7.974-3.373,12.586-.583,2.1-1.17,4.3-.677,6.419a12.9,12.9,0,0,0,1.875,3.872c4.41,6.952,14.651,21.1,19.764,27.866.45,1.97-.385,3.657-2.3,5.469a28.554,28.554,0,0,1-7.255,5.015,13.417,13.417,0,0,1-4.929,1.417A16.424,16.424,0,0,1,199.83,259c-2.207-.749-3.017-1.886-5.068-2.823-3.738-8.661-6.293-15.329-8.194-23.507-1.1-4.741-.948-9.826-3.139-14.183-1.068-2.123-2.529-3.037-3.514-5.2-1.753-3.849-.629-7.231-1.083-11.2-.367-2.955.129-4.837-2.319-9.394" transform="translate(-88.686 -89.581)" fill="#fff"/>
    <path id="パス_37" data-name="パス 37" d="M199.566,181.736c-2.449-3.108-5-6.125-7.609-9.1a27.565,27.565,0,0,0-3.822-4.01c-1.482-1.128-3.535-1.936-5.387-1.251-2.29.847-2.751,4.073-1.374,5.888a1.22,1.22,0,0,0,1.617.424,1.189,1.189,0,0,0,.424-1.617,1.819,1.819,0,0,1-.335-1.867c.215-.588.481-.709,1.146-.7a5.4,5.4,0,0,1,3.6,2c2.106,2.253,4.093,4.653,6.08,7.013q2.033,2.413,3.985,4.9a1.189,1.189,0,0,0,1.674,0,1.211,1.211,0,0,0,0-1.671Z" transform="translate(-93.445 -86.374)" fill="#211916"/>
    <path id="パス_38" data-name="パス 38" d="M189.52,188.388A112.813,112.813,0,0,1,180.883,178a10.576,10.576,0,0,0-2.135-2.433,5.61,5.61,0,0,0-2.831-1.087c-1.932-.178-4.1,1.24-4.2,3.3-.088,1.841.995,3.482,2.016,4.909a1.215,1.215,0,0,0,1.617.424,1.191,1.191,0,0,0,.424-1.617,15.484,15.484,0,0,1-1.313-2.068,2.514,2.514,0,0,1-.221-.554c-.034-.11-.061-.223-.088-.335-.013-.055-.022-.111-.033-.167-.038-.19.016.172-.007-.022a1.08,1.08,0,0,1,.469-1.2,1.957,1.957,0,0,1,1.839-.175c1.588.518,2.433,2.252,3.375,3.5q1.776,2.354,3.663,4.623,2.123,2.545,4.39,4.964c1.042,1.113,2.709-.561,1.671-1.671Z" transform="translate(-88.832 -90.164)" fill="#211916"/>
    <path id="パス_39" data-name="パス 39" d="M180.915,197.07c-1.822-2.488-3.657-4.974-5.584-7.381a12.018,12.018,0,0,0-2.512-2.761,3.825,3.825,0,0,0-3.6-.319,3.6,3.6,0,0,0-1.727,2.61,3.4,3.4,0,0,0,.477,2.424c.859,1.65,1.871,3.226,2.868,4.8,1.137,1.8,2.3,3.579,3.473,5.353.837,1.263,2.883.08,2.041-1.193-1.875-2.835-3.75-5.678-5.474-8.608-.345-.588-.689-1.182-.993-1.791-.049-.1-.1-.2-.141-.3-.086-.188.035.074.036.092-.015-.272-.015.01-.012,0a5.64,5.64,0,0,1,.264-.957c.061-.124.309-.386.148-.273-.038.027.216-.1.223-.1a1.641,1.641,0,0,1,1.094.219,3.486,3.486,0,0,1,.813.827q.557.657,1.1,1.33c1.9,2.35,3.685,4.784,5.466,7.218a1.216,1.216,0,0,0,1.617.424,1.191,1.191,0,0,0,.424-1.617Z" transform="translate(-86.565 -96.283)" fill="#211916"/>
    <path id="パス_40" data-name="パス 40" d="M181.238,215.917a18.745,18.745,0,0,1,1.358,3.089,12.9,12.9,0,0,1,.336,1.249c.076.352.153.819.175,1.011.085.728.118,1.461.171,2.191.073,1.008.21,2.006.231,3.018.049,2.48-.246,4.953.252,7.409a11.222,11.222,0,0,0,1.372,3.559c.591.972,1.366,1.8,2.046,2.709,2.973,3.956,2.84,9.43,3.71,14.09a86.369,86.369,0,0,0,3.761,13.13c1.911,5.337,4.174,10.543,6.451,15.731a1.19,1.19,0,0,0,1.617.424,1.212,1.212,0,0,0,.424-1.617c-3.841-8.754-7.538-17.581-9.69-26.928-1.116-4.851-.965-10.046-3.308-14.561-1.072-2.065-2.961-3.546-3.73-5.789-.788-2.3-.571-4.7-.539-7.085a49.859,49.859,0,0,0-.4-6.216,18.365,18.365,0,0,0-2.2-6.606c-.715-1.343-2.758-.151-2.041,1.193Z" transform="translate(-93.739 -112.207)" fill="#211916"/>
    <path id="パス_41" data-name="パス 41" d="M200.666,173.8a2.105,2.105,0,0,1,.088-.373c-.049.141.126-.086.011.011a1.664,1.664,0,0,1,.564-.375c-.124.053.151-.045.19-.057.119-.036.239-.065.359-.094.061-.014.345-.062.148-.035a3.55,3.55,0,0,1,.361-.029c.1,0,.2.011.3,0,.129-.014-.279-.087.061.021a3.573,3.573,0,0,1,.976.484,11.551,11.551,0,0,1,1.614,1.495,57.235,57.235,0,0,1,6.975,8.114,17.163,17.163,0,0,1,2.281,4.293,15.7,15.7,0,0,1,.542,3.994,36.938,36.938,0,0,1-.148,4.863,31.3,31.3,0,0,1-1.153,5c-.766,2.894-1.527,5.789-2.329,8.673a16.231,16.231,0,0,0-.882,6.033,12.393,12.393,0,0,0,2.172,5.267c2.869,4.523,5.98,8.9,9.086,13.259q4.882,6.855,9.918,13.6.477.636.957,1.27a1.22,1.22,0,0,0,1.617.424,1.19,1.19,0,0,0,.424-1.617c-3.365-4.44-6.64-8.949-9.882-13.478-3.323-4.642-6.642-9.3-9.73-14.1a11.979,11.979,0,0,1-2.195-4.593c-.275-1.965.384-3.952.9-5.82.832-3,1.62-6.02,2.419-9.033.251-.945.519-1.886.756-2.834a15.626,15.626,0,0,0,.324-2.507,36.1,36.1,0,0,0,.073-5.051,15.473,15.473,0,0,0-.7-4.278,21.712,21.712,0,0,0-2.537-4.728,62.565,62.565,0,0,0-7.376-8.569c-1.115-1.138-2.423-2.41-4.1-2.536a4.961,4.961,0,0,0-3.4,1.031,2.72,2.72,0,0,0-.975,1.65,1.219,1.219,0,0,0,.827,1.455,1.191,1.191,0,0,0,1.454-.825Z" transform="translate(-103.192 -88.908)" fill="#211916"/>
    <path id="パス_42" data-name="パス 42" d="M250.73,344.849a13.826,13.826,0,0,1-1.527,1.582,39.558,39.558,0,0,1-27.927,10.134c-2.419-.1-4.969-.64-6.706-2.311s-2.251-4.734-.549-6.439c.466-.467,1.107-.892,1.147-1.547s-.521-1.136-.963-1.6c-2.621-2.778-1.688-8.048,1.925-9.588,2.373.96,3.136,2.206,5.5,3a16.423,16.423,0,0,0,4.761.784,13.418,13.418,0,0,0,4.929-1.417,28.555,28.555,0,0,0,7.257-5.011c2.367-2.237,3.084-4.278,1.767-6.9,1.733-.768,6.822,1.346,8.564,4a19.718,19.718,0,0,1,3.072,10.046,9.57,9.57,0,0,1-.638,4.341,5.908,5.908,0,0,1-.609.935Z" transform="translate(-110.48 -168.664)" fill="#fff"/>
    <path id="パス_43" data-name="パス 43" d="M248.667,342.764a24.3,24.3,0,0,1-4.925,4.334,38.735,38.735,0,0,1-17.707,6.808,35.629,35.629,0,0,1-6.468.2,8.487,8.487,0,0,1-5.391-1.939,3.781,3.781,0,0,1-.95-4.221c.415-.788,1.28-1.2,1.666-2.023a2.72,2.72,0,0,0-.833-3.088,4.92,4.92,0,0,1-1.333-4.3,4.748,4.748,0,0,1,2.77-3.693l-.911.119a18.222,18.222,0,0,1,2.9,1.731,11.547,11.547,0,0,0,3.258,1.477,12.991,12.991,0,0,0,6.46.325,22.082,22.082,0,0,0,6.516-2.99,22.732,22.732,0,0,0,5.584-4.691,6.8,6.8,0,0,0,1.567-3.237,6.568,6.568,0,0,0-.739-3.894l-.706,1.736c.094-.038.189-.061.285-.093.214-.073,0-.011.066-.015.125-.006.249-.011.375-.007.059,0,.455.034.281.012a8.424,8.424,0,0,1,1.843.492,9.086,9.086,0,0,1,5.93,6.045,18.643,18.643,0,0,1,1.305,5.126,21.312,21.312,0,0,1,.025,3.046,5.072,5.072,0,0,1-1.052,2.974,1.189,1.189,0,0,0,.422,1.616,1.211,1.211,0,0,0,1.617-.424c1.4-1.846,1.471-4.166,1.4-6.4a19.525,19.525,0,0,0-1.261-6.1,14.788,14.788,0,0,0-2.82-5.085,12.624,12.624,0,0,0-4.291-2.821c-1.37-.576-3.285-1.25-4.756-.649a1.208,1.208,0,0,0-.706,1.736,3.64,3.64,0,0,1-.021,3.61,13.705,13.705,0,0,1-3.489,3.541,28.043,28.043,0,0,1-4.066,2.605,15.46,15.46,0,0,1-4.461,1.7,9.97,9.97,0,0,1-4-.268,12.481,12.481,0,0,1-4.307-2.036,11.474,11.474,0,0,0-2.322-1.254,2.415,2.415,0,0,0-2.206.66,7.174,7.174,0,0,0-2.467,3.359,7.375,7.375,0,0,0,1.51,7.584,4.517,4.517,0,0,1,.372.4c.039.053.15.305.136.153-.012-.134.006,0-.073.088-.119.127-.246.246-.372.364a5.333,5.333,0,0,0-1.4,1.943,5.879,5.879,0,0,0,.188,4.47c1.421,3.3,5.143,4.455,8.454,4.678a38.3,38.3,0,0,0,10.351-.829,40.344,40.344,0,0,0,18.449-9.226,17.159,17.159,0,0,0,1.97-1.981,1.218,1.218,0,0,0,0-1.672,1.191,1.191,0,0,0-1.67,0Z" transform="translate(-109.253 -167.415)" fill="#211916"/>
    <path id="パス_44" data-name="パス 44" d="M235.311,366.293l-6.818,3.465a1.189,1.189,0,0,0-.424,1.617,1.21,1.21,0,0,0,1.617.424l6.819-3.465a1.19,1.19,0,0,0,.424-1.617A1.21,1.21,0,0,0,235.311,366.293Z" transform="translate(-117.756 -189.357)" fill="#211916"/>
    <path id="パス_45" data-name="パス 45" d="M243.242,144.783c.35-1.2.705-2.386,1.153-3.55l-1.454.825a21.635,21.635,0,0,1,4.534,2.108,1.194,1.194,0,0,0,1.736-.706,42.576,42.576,0,0,1,1.765-5.176l-1.736.706c1.562.967,3.152,1.9,4.633,2.992a1.192,1.192,0,0,0,1.736-.707c.669-2.194,1.438-4.356,2.17-6.53l-1.736.706c1.769,1.161,3.591,2.243,5.344,3.429,1.263.855,2.447-1.192,1.193-2.041-1.753-1.186-3.574-2.268-5.344-3.429a1.195,1.195,0,0,0-1.736.706c-.733,2.173-1.5,4.334-2.171,6.53l1.736-.706c-1.477-1.093-3.071-2.025-4.633-2.991a1.2,1.2,0,0,0-1.736.706,42.573,42.573,0,0,0-1.764,5.176l1.736-.707a24.419,24.419,0,0,0-5.1-2.347,1.209,1.209,0,0,0-1.454.826c-.448,1.163-.8,2.354-1.153,3.55a1.183,1.183,0,0,0,2.28.628Z" transform="translate(-124.793 -68.846)" fill="#211916"/>
    <path id="パス_46" data-name="パス 46" d="M240.962,177.3c.35,1.2.705,2.386,1.153,3.55a1.2,1.2,0,0,0,1.454.825,24.418,24.418,0,0,0,5.1-2.347l-1.736-.706A42.6,42.6,0,0,0,248.7,183.8a1.2,1.2,0,0,0,1.736.707c1.562-.967,3.152-1.9,4.633-2.992l-1.736-.706c.669,2.194,1.438,4.356,2.171,6.53a1.195,1.195,0,0,0,1.736.707c1.77-1.161,3.591-2.243,5.344-3.429,1.253-.848.071-2.9-1.193-2.041-1.753,1.186-3.575,2.268-5.344,3.429l1.736.706c-.733-2.173-1.5-4.334-2.17-6.53a1.192,1.192,0,0,0-1.736-.706c-1.477,1.093-3.07,2.025-4.633,2.991l1.736.706A42.589,42.589,0,0,1,249.211,178a1.194,1.194,0,0,0-1.736-.707,21.634,21.634,0,0,1-4.534,2.108l1.454.826c-.448-1.164-.8-2.354-1.153-3.55a1.183,1.183,0,0,0-2.28.628Z" transform="translate(-124.792 -90.847)" fill="#211916"/>
  </g>
</svg>
