<svg xmlns="http://www.w3.org/2000/svg" width="165.036" height="200.912" viewBox="0 0 165.036 200.912">
  <g id="_4805_color" data-name="4805_color" transform="translate(0.004 -0.005)">
    <path id="パス_47" data-name="パス 47" d="M123.592,96.775c-4.664,1.22-8.11,2.361-8.11,2.361-9.064,1.923-15.211-4.3-15.16-9.974a58.366,58.366,0,0,1,1.8-12.567c1.4-4.987,2.393-13.764,2.393-25.932-.6-17.953,4.127-30.972,11.572-38.1a40.411,40.411,0,0,1,25.964-10.15,41.239,41.239,0,0,1,16.493,3.16l1.474.6,3,1.627c2.674,1.452,3.387,2.557,5.844,4.927,5.681,5.481,9.628,15.343,10.259,24.173a102.16,102.16,0,0,1,.2,13.764c.2,15.16,3,23.646,4.439,27.822a27.741,27.741,0,0,1,1.752,9.5c.051,5.674-7,13.022-15.108,10.114,0,0-19.028-3.993-28.656-4.228C136.492,93.74,129.171,95.315,123.592,96.775Z" transform="translate(-43.17 -1.034)" fill="#ad7b59"/>
    <path id="パス_48" data-name="パス 48" d="M122.509,114.918c.529-.18,9.215-4.243,9.4-4.309,2.747-.992,2.638-2.757,2.984-4.733a37.249,37.249,0,0,0,.565-4.743,27.78,27.78,0,0,1-9.261-7.492,29.357,29.357,0,0,1-5.668-11.253l-.333.031a4.544,4.544,0,0,1-4.009-1.193,10.893,10.893,0,0,1-2.821-3.7,17.142,17.142,0,0,1-1.748-9.088,5.722,5.722,0,0,1,.6-2.3,4.045,4.045,0,0,1,2.909-1.937,4.287,4.287,0,0,1,3.429,1l.84.6c5.661-5.285,15.1-14.173,20.173-19.159-.354,2.989-2.234,9.315-.239,8.722a38.868,38.868,0,0,0,20.457-14.213c1.117,3.718,2.526,8.986,3.822,11.416,1.776,3.329,6.77,12.26,11.886,14.25a4.122,4.122,0,0,1,4-1.678,4.045,4.045,0,0,1,2.909,1.934,5.716,5.716,0,0,1,.6,2.3,17.143,17.143,0,0,1-1.748,9.088,10.891,10.891,0,0,1-2.818,3.7c-1,.8-2.8.741-4.05.96-.242.848-.491,1.55-.622,1.948-.98,2.66-6.491,12.132-13.4,15.524a39.812,39.812,0,0,0,.582,5.273c.346,1.976.238,3.741,2.984,4.733.182.066,7.971,3.771,8.249,3.885,0,0-11.451,11.474-26.8,11.474a28.574,28.574,0,0,1-22.871-11.05Z" transform="translate(-48.005 -17.71)" fill="#fff"/>
    <path id="パス_49" data-name="パス 49" d="M223.587,84.188a2.834,2.834,0,0,1,4.191.654,6.181,6.181,0,0,1,.473,2.871,15.2,15.2,0,0,1-.308,3.272,14.548,14.548,0,0,1-2.515,5.855,4.2,4.2,0,0,1-1.823,1.581,17.067,17.067,0,0,1-2.857.432,1.376,1.376,0,0,0-.955,1.682,1.4,1.4,0,0,0,1.682.955,24.438,24.438,0,0,0,2.661-.378,5.473,5.473,0,0,0,2.609-1.628,15.18,15.18,0,0,0,3.226-5.575,18.173,18.173,0,0,0,1-6.7c-.092-2.217-.632-4.324-2.621-5.572a5.7,5.7,0,0,0-6.7.618,1.379,1.379,0,0,0,0,1.934,1.4,1.4,0,0,0,1.934,0Z" transform="translate(-94.559 -34.778)" fill="#211715"/>
    <path id="パス_50" data-name="パス 50" d="M207.442,107.351a14.438,14.438,0,0,1-.69,3.649c-.137.456-.285.906-.438,1.356-.047.141-.322.811-.144.418a31.5,31.5,0,0,1-1.9,3.525,35.271,35.271,0,0,1-7.644,9,13.985,13.985,0,0,1-5.6,2.881c-1.714.395-.989,3.032.727,2.637,4.3-.99,7.873-4.132,10.678-7.391a38.72,38.72,0,0,0,5.993-9.039,19.008,19.008,0,0,0,1.75-7.037c.057-1.76-2.678-1.758-2.735,0Z" transform="translate(-81.781 -45.623)" fill="#211715"/>
    <path id="パス_51" data-name="パス 51" d="M118.485,80.6a5.721,5.721,0,0,0-6.13-.918c-2.194,1-3,3.1-3.161,5.369a17.352,17.352,0,0,0,4.039,12.607c1.628,1.776,3.838,2.97,6.286,2.439,1.719-.373.991-3.01-.727-2.637s-3.314-1.2-4.22-2.463a15.057,15.057,0,0,1-2.4-5.79,15.313,15.313,0,0,1-.285-3.148,6.164,6.164,0,0,1,.473-2.871,2.834,2.834,0,0,1,4.191-.655,1.4,1.4,0,0,0,1.937,0,1.379,1.379,0,0,0,0-1.934Z" transform="translate(-46.969 -34.067)" fill="#211715"/>
    <path id="パス_52" data-name="パス 52" d="M122.785,101.18a40.738,40.738,0,0,0,3.361,12.546,30.438,30.438,0,0,0,10.881,12.392,20.363,20.363,0,0,0,7.989,3.119,1.412,1.412,0,0,0,1.682-.955,1.377,1.377,0,0,0-.955-1.682c-4.854-.72-8.972-3.536-12.288-7.044a28.693,28.693,0,0,1-6.909-12.8c-.264-1.032-.483-2.075-.665-3.124q-.118-.684-.216-1.367c-.014-.094-.027-.189-.04-.285-.063-.456.032.259-.024-.177q-.04-.313-.078-.627a1.411,1.411,0,0,0-1.367-1.367,1.375,1.375,0,0,0-1.367,1.367Z" transform="translate(-52.836 -42.946)" fill="#211715"/>
    <path id="パス_53" data-name="パス 53" d="M194.025,41.11c1.22,4.106,2.18,8.48,4.315,12.233a43.454,43.454,0,0,0,7.023,9.446,13.863,13.863,0,0,0,5.351,3.565c1.681.535,2.4-2.1.727-2.637a10.953,10.953,0,0,1-3.871-2.594,32.849,32.849,0,0,1-3.805-4.428,33.06,33.06,0,0,1-4.847-8.875c-.827-2.455-1.518-4.954-2.256-7.436a1.368,1.368,0,0,0-2.637.727Z" transform="translate(-83.464 -16.962)" fill="#211715"/>
    <path id="パス_54" data-name="パス 54" d="M166.069,39.2A40.371,40.371,0,0,1,155,49.253a35.951,35.951,0,0,1-6.623,3.111q-.849.3-1.713.553a2.164,2.164,0,0,0-.435.128c-.159.105.036-.023.128-.01a1.073,1.073,0,0,1,.438.129c.015.009.405.447.267.256.2.28.016.128,0-.066-.015-.241,0,.024.007.062,0-.075-.013-.151-.013-.228a11.18,11.18,0,0,1,.061-1.219c.208-1.953.819-4.228,1.078-6.33.152-1.234-1.563-1.724-2.336-.968C140.372,50.064,134.8,55.413,128.839,60.3a1.378,1.378,0,0,0,0,1.934,1.4,1.4,0,0,0,1.934,0C136.73,57.346,142.305,52,147.8,46.6l-2.336-.968c-.052.417.025-.154-.015.109q-.027.182-.057.363-.051.31-.108.62c-.1.562-.213,1.123-.322,1.685-.218,1.128-.427,2.258-.559,3.4a6,6,0,0,0,.1,2.516,1.975,1.975,0,0,0,2.374,1.367,31.771,31.771,0,0,0,7.708-3.076,39.614,39.614,0,0,0,6.846-4.615A43.609,43.609,0,0,0,168,41.14a1.413,1.413,0,0,0,0-1.934,1.376,1.376,0,0,0-1.934,0Z" transform="translate(-55.271 -16.698)" fill="#211715"/>
    <path id="パス_55" data-name="パス 55" d="M160.993,3.22A43.81,43.81,0,0,0,142.629.046a41.693,41.693,0,0,0-18.246,5.363A32.539,32.539,0,0,0,113.715,14.6a41.58,41.58,0,0,0-6.256,13.559,72.578,72.578,0,0,0-2.226,21.467c.057,1.755,2.792,1.763,2.735,0-.348-10.938,1-22.769,7.084-32.155a28.317,28.317,0,0,1,8.922-8.647A39.545,39.545,0,0,1,140.4,2.953a41.183,41.183,0,0,1,19.865,2.905,1.377,1.377,0,0,0,1.683-.957,1.4,1.4,0,0,0-.955-1.682Z" transform="translate(-45.263)" fill="#211715"/>
    <path id="パス_56" data-name="パス 56" d="M227,53.706a75.483,75.483,0,0,0,.035-9.851,63.3,63.3,0,0,0-.864-8.752A40.475,40.475,0,0,0,217.8,16.572c-1.144-1.355-2.453-2.573-3.709-3.823a18.073,18.073,0,0,0-4.062-3.088c-1.543-.849-2.924,1.512-1.38,2.361a14.649,14.649,0,0,1,3.247,2.4c1.111,1.086,2.248,2.172,3.3,3.317a31.1,31.1,0,0,1,5.042,7.77,42.362,42.362,0,0,1,3.126,9.418,53.139,53.139,0,0,1,.912,8.245,78.04,78.04,0,0,1,0,10.534,1.378,1.378,0,0,0,1.367,1.367A1.4,1.4,0,0,0,227,53.706Z" transform="translate(-89.492 -4.077)" fill="#211715"/>
    <path id="パス_57" data-name="パス 57" d="M102.108,86.112c0,4.986-.15,9.978-.6,14.945a63.285,63.285,0,0,1-1.547,9.9,63.312,63.312,0,0,0-1.994,12.376,11.523,11.523,0,0,0,.655,4.939,12.105,12.105,0,0,0,2.953,4.366c3.57,3.354,8.551,4.224,13.243,3.263a1.368,1.368,0,0,0-.727-2.637,11.948,11.948,0,0,1-10.267-2.274,9.769,9.769,0,0,1-2.564-3.444,8.859,8.859,0,0,1-.551-4.309,59.808,59.808,0,0,1,1.89-11.553,65.478,65.478,0,0,0,1.547-9.615c.533-5.3.7-10.635.7-15.96a1.368,1.368,0,0,0-2.735,0Z" transform="translate(-42.137 -36.483)" fill="#211715"/>
    <path id="パス_58" data-name="パス 58" d="M229.839,86.114a92.214,92.214,0,0,0,3.154,24c.815,2.856,1.967,5.624,2.564,8.54a23.325,23.325,0,0,1,.436,3.483,10.89,10.89,0,0,1-.085,2.585,9.571,9.571,0,0,1-2.1,4.208,11,11,0,0,1-4.734,3.372,9.621,9.621,0,0,1-6.424-.07,1.368,1.368,0,1,0-.727,2.637,12.51,12.51,0,0,0,12.157-2.362,13.492,13.492,0,0,0,3.528-4.447,11.463,11.463,0,0,0,1.129-5.668,29.479,29.479,0,0,0-1.4-7.682c-.38-1.2-.81-2.377-1.187-3.575a71.557,71.557,0,0,1-2.165-8.905,99.925,99.925,0,0,1-1.412-16.112,1.368,1.368,0,0,0-2.735,0Z" transform="translate(-95.065 -36.485)" fill="#211715"/>
    <path id="パス_59" data-name="パス 59" d="M141.308,146.2a37.715,37.715,0,0,1-.468,3.793,21.868,21.868,0,0,1-.408,2.283,1.937,1.937,0,0,1-.968,1.3,13.11,13.11,0,0,1-1.253.579c-2.176.99-4.338,2.012-6.51,3.011q-.842.387-1.685.77l-.6.269c-.36.161.3-.108-.017.006a1.4,1.4,0,0,0-.955,1.682,1.379,1.379,0,0,0,1.682.955c.855-.307,1.686-.737,2.512-1.115q2-.92,4-1.849l2.954-1.367c.052-.024.2-.06.237-.107-.01.013-.523.208-.205.091.156-.057.309-.124.461-.189a6.063,6.063,0,0,0,.84-.421,4.855,4.855,0,0,0,1.971-2.367,12,12,0,0,0,.539-2.521c.263-1.6.5-3.187.614-4.8a1.367,1.367,0,0,0-2.735,0Z" transform="translate(-55.252 -62.32)" fill="#211715"/>
    <path id="パス_60" data-name="パス 60" d="M194.84,144.958a50.58,50.58,0,0,0,.873,6.955,5.255,5.255,0,0,0,3.475,4.031c.541.215-.342-.171.042.013.145.07.292.136.438.2q.689.323,1.376.649,1.863.88,3.726,1.763c.847.4,1.687.831,2.551,1.2a1.413,1.413,0,0,0,1.87-.491,1.376,1.376,0,0,0-.491-1.871c-1.829-.78-3.609-1.7-5.407-2.551-.872-.413-1.742-.835-2.621-1.235a9.76,9.76,0,0,1-1.322-.627,1.862,1.862,0,0,1-.855-1.184,21.877,21.877,0,0,1-.468-2.6,37.841,37.841,0,0,1-.456-4.257c-.091-1.751-2.826-1.761-2.735,0Z" transform="translate(-83.841 -61.805)" fill="#211715"/>
    <path id="パス_61" data-name="パス 61" d="M150.782,267.346H68.077l.071-.4.171-.959c.213-1.329,4.909-23.666,4.893-30.3,0-.759-.106-3.817-.254-7.476l-.243.347-3.358,5.292a46.707,46.707,0,0,1-5.949,8.405,31.852,31.852,0,0,1-5.742,5.706c-4.853,3.806-11.033,5.38-16.993,1.548-5.831-3.749-7.047-9.819-9.034-15.507-3.911-11.2-7.475-29.385-8.257-35.09,2.729-1.082,17.952-6.42,19.646-6.468.68,1.409,3.506,10.26,6.076,17.989a59.055,59.055,0,0,1,2.408-6.864c1.927-6.113,3.693-14.613,5.093-18.594a26.363,26.363,0,0,1,6.5-10.117c6.083-4.456,17.724-8.656,26.051-11.7l.318-.119a30.381,30.381,0,0,1,4.475-4.956c1.717,4.7,3.054,8.043,5.118,12.6,3.962,8.741,7.869,17.131,11.808,25.722,6.471-10.448,12.652-27.251,14.6-38.849a22.481,22.481,0,0,1,4.648,4.633,240.6,240.6,0,0,1,22.9,11.262c1.47.8,3.089,1.641,4.254,2.372a16.329,16.329,0,0,1,2.128,1.382c2.254,1.884,4.078,5.531,5,8.814,1.409,5.03,6.643,28.663,8.168,37.407,1.448,8.305,2.091,18.106-1.958,21.482-2.982,2.536-7.1,3.408-11.007,3.194-3.967-.216-7.8-1.444-11.588-2.647-.078-1.025,2.037,16.407,2.6,20.584l.19,1.3" transform="translate(-10.062 -67.796)" fill="#fff"/>
    <path id="パス_62" data-name="パス 62" d="M159.959,178.29A19.526,19.526,0,0,1,155.065,177l-.171-.025q.363.825.762,1.7c3.962,8.741,7.869,17.131,11.808,25.722,4.661-7.52,9.025-18.418,11.829-28.262C175.718,178.834,166.421,179.278,159.959,178.29Z" transform="translate(-66.653 -75.793)" fill="#79d3f1"/>
    <path id="パス_63" data-name="パス 63" d="M115.292,345.2h67.879" transform="translate(-49.612 -148.538)" fill="none"/>
    <path id="パス_64" data-name="パス 64" d="M239.96,312.267c.77,5.95,1.472,11.91,2.235,17.862q.228,1.783.488,3.562a1.376,1.376,0,0,0,1.682.955,1.4,1.4,0,0,0,.955-1.682q-.1-.671-.2-1.342c.054.365-.022-.167-.047-.357q-.057-.415-.108-.83-.274-2.13-.539-4.261-.627-5-1.244-10-.243-1.952-.492-3.9a1.412,1.412,0,0,0-1.367-1.367,1.375,1.375,0,0,0-1.367,1.367Z" transform="translate(-103.257 -133.779)" fill="#211715"/>
    <path id="パス_65" data-name="パス 65" d="M248.328,208.754c-1.736,13.677-4.33,30.6-7.214,50.094-.285,1.913.607,9.748,1.759,18.639" transform="translate(-103.731 -89.825)" fill="none"/>
    <path id="パス_66" data-name="パス 66" d="M102.253,289.778c.736-4.15,1.618-8.274,2.389-12.419.607-3.268,1.188-6.542,1.7-9.827a82.232,82.232,0,0,0,1-8.322c.088-1.733-.032-3.481-.1-5.213q-.171-4.579-.38-9.157c-.208-4.575-.387-9.142-1.013-13.682-.877-6.356-1.92-12.719-3.224-19-.1-.469-.2-.937-.308-1.4-.4-1.713-3.039-.988-2.637.727,1.395,5.94,2.292,12.039,3.195,18.069.22,1.468.374,2.532.529,3.817.092.764.16,1.53.224,2.3.194,2.3.285,4.615.394,6.923.247,5.135.562,10.288.61,15.429a46.3,46.3,0,0,1-.608,6.638c-.46,3.247-1.015,6.48-1.6,9.707-.824,4.558-1.8,9.092-2.621,13.652-.063.347-.122.694-.184,1.042a1.405,1.405,0,0,0,.955,1.682,1.379,1.379,0,0,0,1.682-.955Z" transform="translate(-42.85 -90.264)" fill="#211715"/>
    <path id="パス_67" data-name="パス 67" d="M210.5,166.475c4.894,2.088,9.693,4.382,14.413,6.831,4.281,2.222,8.627,4.419,12.737,6.943.334.205.676.408.99.644-.2-.15.021.027.091.089.222.2.44.4.646.611a12.9,12.9,0,0,1,1.84,2.529,22.472,22.472,0,0,1,2.211,5.463c.627,2.336,1.165,4.695,1.709,7.05q2.45,10.571,4.637,21.2c1.485,7.2,3.256,14.667,2.66,22.062a13.964,13.964,0,0,1-1.176,4.976,5,5,0,0,1-1.232,1.676,10.563,10.563,0,0,1-2.774,1.746c-4.643,2.081-9.944,1.16-14.646-.181-1.286-.367-2.564-.771-3.836-1.176-1.681-.534-2.4,2.105-.727,2.637,5.279,1.677,10.717,3.283,16.3,2.388a15.193,15.193,0,0,0,6.82-2.836,9.185,9.185,0,0,0,3.149-4.558c1.4-4.183,1.072-8.963.586-13.274-.4-3.578-1.067-7.115-1.769-10.645-1.459-7.334-3.055-14.641-4.712-21.933-.647-2.848-1.3-5.692-2.009-8.524-.917-3.646-2.239-7.283-4.752-10.154a16.233,16.233,0,0,0-4.32-3.158c-2.348-1.357-4.764-2.609-7.156-3.887-4.714-2.52-9.479-4.943-14.351-7.145q-1.966-.889-3.953-1.735a1.413,1.413,0,0,0-1.87.491,1.377,1.377,0,0,0,.491,1.871Z" transform="translate(-90.291 -70.542)" fill="#211715"/>
    <path id="パス_68" data-name="パス 68" d="M101.039,350.6h82.591a1.368,1.368,0,0,0,0-2.735H101.039A1.368,1.368,0,0,0,101.039,350.6Z" transform="translate(-42.911 -149.687)" fill="#211715"/>
    <path id="パス_69" data-name="パス 69" d="M177.364,195.815a104.165,104.165,0,0,0,7.241-14.641,134.388,134.388,0,0,0,5.463-15.926c.749-2.754,1.4-5.537,1.874-8.352l-2.009.818a24.029,24.029,0,0,1,8.1,11.673q.185.612.333,1.234a6.277,6.277,0,0,0,.211,1.069c-.089-.044.538-.5-.071-.175-.148.079-.3.15-.448.228-.419.212-.835.432-1.253.649-1.562.812-.181,3.173,1.38,2.361a8.754,8.754,0,0,0,2.555-1.516c.806-.894.551-2.051.313-3.116a24.219,24.219,0,0,0-2.136-5.732,25.765,25.765,0,0,0-7.6-9.034,1.374,1.374,0,0,0-2.009.817,101.536,101.536,0,0,1-3.908,15.057,130.841,130.841,0,0,1-6.284,15.6c-1.253,2.6-2.608,5.147-4.111,7.609-.92,1.506,1.444,2.882,2.361,1.38Z" transform="translate(-75.215 -66.768)" fill="#211715"/>
    <path id="パス_70" data-name="パス 70" d="M147.724,196.763c-2.421-2.5-4.889-4.956-7.21-7.547q-1.5-1.669-2.9-3.418-.8-.993-1.568-2-.462-.605-.919-1.214a10.322,10.322,0,0,0-.982-1.322,1.966,1.966,0,0,0-.132-.177l.013.285.1-.166a6.751,6.751,0,0,0,.495-.709c.28-.381.583-.741.891-1.1.814-.947,1.677-1.85,2.528-2.764a1.38,1.38,0,0,0-.6-2.286c-.54-.089-6.267-1.231-6.288-1.159a.348.348,0,0,1,.162.265.969.969,0,0,1,.043-.276,4.682,4.682,0,0,0,.14-.667q.154-.672.349-1.333a22.232,22.232,0,0,1,1.059-2.863,29.564,29.564,0,0,1,7.292-9.869l-2.286-.6c2.668,7.287,5.875,14.319,9.111,21.367,3.412,7.432,6.857,14.849,10.244,22.293,1.642,3.608,3.386,7.144,3.646,11.166.247,3.817.063,7.643.06,11.462-.005,7.388.213,14.775.476,22.157.238,6.657.583,13.321.587,19.984a1.368,1.368,0,0,0,2.735,0c0-5.8-.28-11.6-.493-17.4-.271-7.388-.518-14.777-.562-22.171-.024-3.863.117-7.729.026-11.59a23.945,23.945,0,0,0-2.533-11.494c-3.325-7.546-6.861-15-10.312-22.494-3.646-7.924-7.349-15.806-10.348-24a1.387,1.387,0,0,0-2.285-.6,31.675,31.675,0,0,0-8.322,11.841,23.131,23.131,0,0,0-1.055,3.32c-.295,1.265-.576,2.564.475,3.567.892.851,2.529.874,3.689,1.094q1.828.346,3.663.651l-.6-2.285a36.232,36.232,0,0,0-4.34,5.127,2.436,2.436,0,0,0-.424,1.766,4.041,4.041,0,0,0,.894,1.672q1,1.34,2.02,2.665a97.912,97.912,0,0,0,6.665,7.762c1.606,1.684,3.239,3.343,4.858,5.013,1.228,1.265,3.16-.669,1.934-1.937Z" transform="translate(-55.348 -67.179)" fill="#211715"/>
    <path id="パス_71" data-name="パス 71" d="M153.473,177.154a27.471,27.471,0,0,0,9.762,1.889,39.792,39.792,0,0,0,11.23-.831,12.753,12.753,0,0,0,4.618-1.919,1.41,1.41,0,0,0,.491-1.871,1.378,1.378,0,0,0-1.871-.491,9.011,9.011,0,0,1-3.435,1.51,26.693,26.693,0,0,1-4.711.779,43.883,43.883,0,0,1-10.425-.325c-.841-.136-1.679-.3-2.5-.52-.342-.09-.679-.189-1.013-.3-.171-.057-.345-.118-.516-.183l-.163-.064c-.354-.139.251.114-.083-.036a1.41,1.41,0,0,0-1.871.491,1.378,1.378,0,0,0,.49,1.871Z" transform="translate(-65.751 -74.762)" fill="#211715"/>
    <path id="パス_72" data-name="パス 72" d="M31.815,181.258c-4.07,1.181-12.305,4.049-15.986,5.4l-.292-.815c-.6-1.994-.9-3.852-2.126-5.523s-2.781-3.215-4.126-4.771c-4.125-4.77-6.3-12.256-6.6-13.963-.222-.837-.359-3.014.154-3.714a2.807,2.807,0,0,1,1.834-1.288,5.013,5.013,0,0,1,2.735.581l.622.412c-.018-.1-.032-.193-.044-.289a3.664,3.664,0,0,1,1.477-3.563,3.276,3.276,0,0,1,3.626.521l-.189-1.162c-.132-.815-.26-3.076.734-4.036.86-.832,2.552-1.469,3.353-1.115a7.293,7.293,0,0,1,1.709.986c-.057-.171-.087-.267-.087-.267-1.508-4.728-3.112-10.473-3.541-12.262-.41-1.7-1-4.832.767-5.672,2.065-.98,3.239.078,4.244,1.26,1.827,2.148,8.3,22.9,7.509,21.281.023,0,.045.005.062.005l.256.034c.131.023.262.04.393.068a2.041,2.041,0,0,1,.256.051c.091.017.182.04.273.063.177.04.348.091.518.142a5.386,5.386,0,0,1,1.208.541.8.8,0,0,1,.148.091,3.882,3.882,0,0,1,1.065,1,14.907,14.907,0,0,1,2.176,6.791,11.1,11.1,0,0,1-.86,5.036,46.68,46.68,0,0,0-2.051,6.022c-.376,2.226.489,5.925.968,8.1Z" transform="translate(-1.071 -56.08)" fill="#fff"/>
    <path id="パス_73" data-name="パス 73" d="M7.026,174.769a6.05,6.05,0,0,0-3.068-.783A3.88,3.88,0,0,0,.91,175.54c-1.082,1.341-1.08,3.54-.627,5.148a12.756,12.756,0,0,0,2.45,3.8c1.178,1.558,2.355,3.462,4.322,4.086a3.878,3.878,0,0,0,3.418-.468,5.12,5.12,0,0,0,1.709-3.608,1.376,1.376,0,0,0-1.367-1.367A1.4,1.4,0,0,0,9.447,184.5a2.867,2.867,0,0,1-.232.837,3.362,3.362,0,0,1-.252.451c-.012.017-.3.262-.109.136a.855.855,0,0,1-.481.106A1.851,1.851,0,0,1,8.011,186a2.254,2.254,0,0,1-.228-.057c-.042-.014-.209-.1-.087-.036a8.84,8.84,0,0,1-2.6-2.792,33.7,33.7,0,0,1-2.087-2.962c-.1-.158-.068-.33-.033-.021-.008-.069-.051-.144-.064-.214-.021-.108-.044-.215-.063-.324,0-.013-.029-.216-.011-.072s-.011-.135-.014-.16c-.025-.325-.043-.648-.039-.974,0-.15.01-.3.018-.449,0,0,.021-.24,0-.1-.014.118.022-.128.028-.153.026-.118.151-.407.018-.171a1.587,1.587,0,0,1,.237-.322,1.31,1.31,0,0,1,.713-.477,3.467,3.467,0,0,1,.89.083,2.911,2.911,0,0,1,.955.337c1.5.922,2.88-1.442,1.38-2.361Z" transform="translate(0 -74.864)" fill="#211715"/>
    <path id="パス_74" data-name="パス 74" d="M.488,184.526a33.042,33.042,0,0,0,2.666,7.7A30.915,30.915,0,0,0,6,197.243c1.286,1.813,2.863,3.371,4.308,5.051a11.044,11.044,0,0,1,1.928,2.84,33.734,33.734,0,0,1,1.105,3.649,1.369,1.369,0,0,0,2.637-.727c-.634-2.151-1.1-4.326-2.488-6.148-1.4-1.84-3.071-3.433-4.517-5.229a31,31,0,0,1-4.886-9.457,23.859,23.859,0,0,1-.962-3.418,1.379,1.379,0,0,0-1.677-.959,1.4,1.4,0,0,0-.957,1.682Z" transform="translate(-0.193 -78.657)" fill="#211715"/>
    <path id="パス_75" data-name="パス 75" d="M17.187,169.679a4.484,4.484,0,0,0-5.817-.356c-2.032,1.686-1.889,4.58-1.055,6.836a29.853,29.853,0,0,0,1.823,3.683,26.237,26.237,0,0,0,1.88,3.227c1.415,1.919,4,3.993,6.487,2.682a4.948,4.948,0,0,0,2.3-4.769c-.107-1.748-2.842-1.76-2.735,0,.014.225.008.448,0,.673-.005.079-.011.157-.02.235q.03-.2,0-.046c-.028.16-.062.317-.105.473-.114.41-.42,1.1-1.061,1.111-.9.019-1.789-.885-2.315-1.5a15.125,15.125,0,0,1-1.688-2.749c-.6-1.12-1.288-2.228-1.793-3.4a6.133,6.133,0,0,1-.64-2.968,2.463,2.463,0,0,1,.456-1.176,1.823,1.823,0,0,1,.369-.342q.189-.1-.025,0a2.455,2.455,0,0,1,.254-.077,1.883,1.883,0,0,1,1.75.4,1.368,1.368,0,0,0,1.934-1.934Z" transform="translate(-4.193 -72.469)" fill="#211715"/>
    <path id="パス_76" data-name="パス 76" d="M28.824,164.045a8.74,8.74,0,0,0-2.574-4,4.78,4.78,0,0,0-4.163-1.215,4.832,4.832,0,0,0-3.66,3.247,7.463,7.463,0,0,0-.079,3.672,39.739,39.739,0,0,0,2.047,5.057,29.258,29.258,0,0,0,2.842,5.676,5.21,5.21,0,0,0,5.223,2.094,4.834,4.834,0,0,0,3.454-4.5c.107-1.758-2.628-1.752-2.735,0a1.894,1.894,0,0,1-1.969,1.88,2.854,2.854,0,0,1-1.456-.733c.015.014-.418-.439-.22-.206.159.187-.12-.179-.171-.256A33.7,33.7,0,0,1,23.005,170c-.642-1.462-1.228-2.848-1.823-4.427q-.1-.259-.189-.52c-.012-.034-.019-.07-.031-.1-.024-.072.029.374,0,.014-.011-.142-.026-.285-.033-.426-.044-.832-.06-1.95.57-2.453a3.912,3.912,0,0,1,1.652-.67c.264-.057.171.026.084.006-.161-.038.228.1.285.133a7.579,7.579,0,0,1,.709.39,5.713,5.713,0,0,1,1.953,2.83,1.405,1.405,0,0,0,1.682.955,1.378,1.378,0,0,0,.955-1.682Z" transform="translate(-7.814 -68.292)" fill="#211715"/>
    <path id="パス_77" data-name="パス 77" d="M37.063,151.637c-.521-2.165-1.253-4.288-1.937-6.4-1.012-3.14-2.062-6.267-3.217-9.359-.486-1.3-.99-2.6-1.558-3.863a8.383,8.383,0,0,0-1.515-2.421,4.421,4.421,0,0,0-6.06-.726c-1.661,1.329-1.466,3.767-1.139,5.64a53.885,53.885,0,0,0,1.358,5.319q1.158,4.105,2.442,8.174c.532,1.671,3.173.957,2.637-.727-1.242-3.906-2.425-7.845-3.431-11.819-.326-1.288-.765-2.9-.37-4.1a.881.881,0,0,1,.2-.361,1.88,1.88,0,0,1,1.182-.306c.635.082,1.082.7,1.545,1.174.235.241-.087-.181-.044-.064a1.139,1.139,0,0,0,.105.16c.085.145.171.29.249.439.213.4.4.819.585,1.236q.076.174.15.349c.061.142-.021-.05-.027-.065.03.072.06.144.09.217q.177.431.349.867c.246.623.484,1.25.717,1.88,1.061,2.859,2.036,5.754,2.976,8.653.731,2.258,1.519,4.527,2.075,6.836.412,1.709,3.05.986,2.637-.727Z" transform="translate(-9.217 -55.061)" fill="#211715"/>
    <path id="パス_78" data-name="パス 78" d="M44.209,197.042a36.905,36.905,0,0,1-.986-5.684,11.2,11.2,0,0,1-.01-1.362c.014-.217.031-.338.052-.509.068-.562-.087.232,0,0,.185-.469.28-1,.435-1.481.419-1.31.859-2.615,1.375-3.888.031-.077-.111.214.019-.035.057-.109.114-.22.164-.332a8.465,8.465,0,0,0,.526-1.46,14.323,14.323,0,0,0,.435-3.03,15.838,15.838,0,0,0-1-5.7c-.781-2.2-1.961-4.042-4.2-4.916a16.086,16.086,0,0,0-6.962-.557,16.419,16.419,0,0,0-3.444.486,3.48,3.48,0,0,0-2.319,1.948,4.334,4.334,0,0,0-.114,3.848,3.2,3.2,0,0,0,2.431,1.944c.808.147,2.316.034,2.815.81a5.714,5.714,0,0,1,.408,1.469,16.85,16.85,0,0,1,.487,2.108,1.376,1.376,0,0,0,1.682.955,1.4,1.4,0,0,0,.955-1.682,27.518,27.518,0,0,0-.782-3.274,3.714,3.714,0,0,0-1.755-2.275,8.539,8.539,0,0,0-2.911-.722q-.248-.038-.491-.094c-.2-.047-.05.032-.21-.075.223.149-.034-.084-.108-.228a1.726,1.726,0,0,1-.219-.616,1.772,1.772,0,0,1,.228-.9c.07-.145.294-.513.293-.513-.171.145.09.006.154-.016a11,11,0,0,1,2.8-.439,14.582,14.582,0,0,1,6.128.373c1.713.64,2.387,2.507,2.833,4.142a12.691,12.691,0,0,1,.5,4.772,14.326,14.326,0,0,1-1.149,3.693c-.474,1.227-.9,2.476-1.291,3.73a11.327,11.327,0,0,0-.374,1.335c-.023.122-.034.256-.051.38,0,.026.057-.451,0,.025-.035.266-.066.531-.08.8a11.928,11.928,0,0,0,.029,1.476,44,44,0,0,0,1.069,6.205c.379,1.718,3.016.991,2.637-.727Z" transform="translate(-11.959 -72.277)" fill="#211715"/>
    <path id="パス_79" data-name="パス 79" d="M68.8,214.057a43.82,43.82,0,0,1,1.528-4.685c.144-.392.291-.783.444-1.171.167-.422.128-.313.312-.731a26.114,26.114,0,0,0,1.066-3.475c1.227-4.4,2.209-8.864,3.475-13.251a25.174,25.174,0,0,1,6.337-11.249,22.023,22.023,0,0,1,4.946-3.133c2.017-1.072,4.092-2.034,6.187-2.943,4.858-2.108,9.844-3.911,14.817-5.728a1.4,1.4,0,0,0,.955-1.682,1.379,1.379,0,0,0-1.682-.955c-4.541,1.659-9.086,3.315-13.545,5.184a66.272,66.272,0,0,0-12.264,6.248,18.179,18.179,0,0,0-4.672,5.236,28.85,28.85,0,0,0-3.162,6.507c-1.411,4.225-2.314,8.626-3.453,12.929-.349,1.315-.709,2.627-1.1,3.931-.292.986-.612,1.749-1,2.757a45.434,45.434,0,0,0-1.828,5.486c-.416,1.709,2.222,2.439,2.637.728Z" transform="translate(-28.452 -71.001)" fill="#211715"/>
    <path id="パス_80" data-name="パス 80" d="M53.4,246.607q-.071-.142-.137-.288c-.038-.082-.205-.469-.114-.251s-.083-.2-.118-.289q-.1-.257-.2-.516c-.329-.848-.639-1.7-.943-2.56-.807-2.27-1.574-4.554-2.336-6.84-1.6-4.785-3.136-9.594-4.752-14.375a39.973,39.973,0,0,0-1.617-4.409A1.335,1.335,0,0,0,42,216.4a11.537,11.537,0,0,0-2.637.59c-1.441.419-2.869.881-4.294,1.348q-4.856,1.6-9.666,3.322c-1.139.408-2.285.812-3.412,1.256a1.428,1.428,0,0,0-.955,1.682c.775,5.615,1.98,11.192,3.231,16.717.812,3.589,1.687,7.163,2.668,10.71.921,3.334,2.026,6.6,3.1,9.882,1.1,3.361,2.2,6.831,4.305,9.72a16.081,16.081,0,0,0,10.183,6.577,16.263,16.263,0,0,0,11.744-2.96,29.808,29.808,0,0,0,4.317-3.584c1.065-1.082,2.033-2.267,3.024-3.418a51.283,51.283,0,0,0,5.91-8.4c.915-1.63,2.017-3.18,3.019-4.759l.33-.52c.946-1.49-1.42-2.864-2.361-1.38l-2.819,4.444c-.4.634-.741,1.284-1.114,1.933a42.909,42.909,0,0,1-3,4.394c-1.043,1.375-2.183,2.664-3.308,3.97a28.744,28.744,0,0,1-2.888,2.985c-2.81,2.444-6.133,4.565-9.96,4.742A12.772,12.772,0,0,1,37.385,271.1c-2.2-2.507-3.338-5.731-4.366-8.851-1.035-3.14-2.115-6.26-3.026-9.439-.982-3.424-1.853-6.881-2.663-10.35-1.339-5.737-2.569-11.522-3.475-17.345q-.1-.619-.183-1.239l-.955,1.682c2.406-.949,4.862-1.779,7.305-2.626,3.139-1.088,6.285-2.168,9.468-3.124.582-.175,1.166-.347,1.756-.5.207-.053.415-.105.627-.148.085-.018.179-.024.263-.049.184-.057-.436.038-.134.025l-1.181-.677c.031.064.054.137.089.2-.186-.315-.085-.208,0,.013q.149.385.29.773c.276.758.537,1.521.8,2.284.741,2.169,1.452,4.346,2.168,6.522,1.608,4.892,3.19,9.794,4.9,14.651a45.452,45.452,0,0,0,1.976,5.086,1.382,1.382,0,0,0,1.871.491,1.4,1.4,0,0,0,.491-1.871Z" transform="translate(-9.036 -93.116)" fill="#211715"/>
    <path id="パス_81" data-name="パス 81" d="M201.038,262.243c6.1-17.319,20.371-60.5,22.517-68.14-5.717-1.873-42.169-14.712-48.8-15.926-2.544,7.566-21.807,61.44-24.307,69.1,10.706,3.9,38.764,12.5,50.589,14.96" transform="translate(-64.741 -76.668)" fill="#fff"/>
    <path id="パス_82" data-name="パス 82" d="M200.371,259.894c-6.495-1.357-12.9-3.2-19.268-5.044q-11.116-3.213-22.126-6.787c-3.076-1-6.153-2.023-9.2-3.129l.955,1.682c1-3.054,2.081-6.082,3.143-9.115q2.717-7.755,5.462-15.5,3.148-8.9,6.3-17.794,2.842-8.02,5.677-16.042c1.179-3.341,2.366-6.679,3.512-10.031.071-.208.142-.416.212-.627l-1.682.955a62.836,62.836,0,0,1,6.884,1.885c3.639,1.116,7.257,2.3,10.871,3.495,7.848,2.6,15.667,5.285,23.485,7.972,2.517.865,5.031,1.748,7.561,2.578l-.955-1.682c-.936,3.315-2.005,6.595-3.047,9.877q-2.651,8.352-5.372,16.682-1.776,5.458-3.568,10.91c-.551,1.675,2.089,2.393,2.637.727,3.6-10.955,7.2-21.914,10.617-32.928.469-1.51.939-3.019,1.367-4.542a1.4,1.4,0,0,0-.955-1.682c-5.725-1.88-11.4-3.9-17.1-5.851-7.862-2.684-15.732-5.371-23.666-7.84a70.842,70.842,0,0,0-8.029-2.238,1.408,1.408,0,0,0-1.682.955c-1.022,3.034-2.1,6.049-3.165,9.068q-2.728,7.74-5.474,15.475l-6.3,17.793q-2.841,8.028-5.667,16.063c-1.177,3.353-2.365,6.7-3.492,10.073q-.106.315-.209.632a1.4,1.4,0,0,0,.955,1.682c6.089,2.214,12.282,4.155,18.47,6.069,7.412,2.292,14.855,4.5,22.35,6.5,3.238.866,6.488,1.709,9.769,2.393,1.717.359,2.45-2.279.727-2.637Z" transform="translate(-63.71 -75.638)" fill="#211715"/>
    <path id="パス_83" data-name="パス 83" d="M239.535,319.237c.917-2.6,2.013-5.121,2.9-7.73a1.376,1.376,0,0,0-.955-1.682,1.4,1.4,0,0,0-1.682.955c-.885,2.609-1.982,5.134-2.9,7.73a1.375,1.375,0,0,0,.955,1.682,1.4,1.4,0,0,0,1.682-.955Z" transform="translate(-101.919 -133.299)" fill="#211715"/>
    <path id="パス_84" data-name="パス 84" d="M161.773,256.419a33.217,33.217,0,0,1,5.116.575c1.048.308,2.09.677,3.076,1.048,1.741-3.936,5.265-10.795,8.133-15.993.153-.194.1-.179.117-.243.011-.131.028-.268.046-.4.068-.518.177-1.031.285-1.527.5-2.239.968-4.939-.376-6.9a23.311,23.311,0,0,0-4.2-4.483c-1.8-1.592-3.764-2.794-5.492-2.52-1.994.316-3.228,2.057-2.975,3.386l.142.746c-1.433-.855-2.638-1.568-3.525-2.12-3.788-2.353-10.209.866-6.54,4.785-1.031-.16-3.173,1.635-3.111,2.82s.553,2.079.074,3.247c-.427,1.037-1.88,1.977-2.068,2.678-.461,1.738.991,3.23.917,3.515-.3,1.139-1.1,3.977-.12,5.292a15.8,15.8,0,0,0,3.2,3.093c2.433,1.624,4.176,2.643,7.087,2.979Z" transform="translate(-64.711 -97.218)" fill="#fff"/>
    <path id="パス_85" data-name="パス 85" d="M168.777,230.976c-2.1-1.294-4.229-2.538-6.337-3.817a7.933,7.933,0,0,0-5.506-1.3,5.979,5.979,0,0,0-4.337,2.617c-1.05,1.8-.336,3.76.968,5.2l.968-2.336a4.589,4.589,0,0,0-3.418,1.8,4.138,4.138,0,0,0-.993,1.782,7.691,7.691,0,0,0,.2,2.463c.158,1.449-1.444,2.108-2.033,3.267-.744,1.463-.1,3.16.638,4.474a1.614,1.614,0,0,0,.142.251l.023.044a1.036,1.036,0,0,1-.093-.7c-.09.047-.147.57-.175.687a16.065,16.065,0,0,0-.4,2.336,5.085,5.085,0,0,0,1.3,4.064,18.393,18.393,0,0,0,7.735,5.255,20.93,20.93,0,0,0,5.4.823,20.091,20.091,0,0,1,5.7,1.418,1.379,1.379,0,0,0,1.682-.955,1.4,1.4,0,0,0-.955-1.682,21.516,21.516,0,0,0-4.842-1.367c-1.418-.179-2.863-.15-4.273-.377a14.228,14.228,0,0,1-7-3.5c-.753-.68-1.914-1.63-2.031-2.551a9.468,9.468,0,0,1,.464-3.3,1.987,1.987,0,0,0-.151-1.525,9.337,9.337,0,0,1-.627-1.24,2.613,2.613,0,0,1-.119-.709c-.007-.114.123-.417,0-.177,0,.005.125-.186.057-.095.382-.518.912-.931,1.314-1.436a4.225,4.225,0,0,0,.991-2.553c.025-.821-.277-1.608-.279-2.422,0,.279.114-.087.013.047.094-.123.152-.275.249-.4a4.2,4.2,0,0,1,.549-.532,3.192,3.192,0,0,1,.623-.395c-.142.066.065-.026.079-.032.209-.085-.1-.052.228-.022,1.26.114,1.7-1.53.968-2.336a3.229,3.229,0,0,1-.6-.873,2.351,2.351,0,0,1-.1-.456c-.027-.338-.022.049.011-.2.008-.06.134-.4.024-.14a1.135,1.135,0,0,1,.375-.554,3.734,3.734,0,0,1,1.224-.744,4.634,4.634,0,0,1,1.82-.285,7.4,7.4,0,0,1,3.57,1.491c1.858,1.113,3.72,2.217,5.564,3.353,1.5.926,2.877-1.438,1.38-2.361Z" transform="translate(-63.67 -97.157)" fill="#211715"/>
    <path id="パス_86" data-name="パス 86" d="M177.2,227.972c.018.122.019-.095.035-.166.012-.052.118-.334.092-.278a2.036,2.036,0,0,1,.557-.712,2.393,2.393,0,0,1,1.994-.483c1.972.4,3.65,2.171,5.048,3.5,1.347,1.284,2.978,2.83,3.12,4.795a10.844,10.844,0,0,1-.211,2.783c-.1.529-.223,1.053-.33,1.58-.051.255-.1.513-.141.767q-.046.311-.086.622-.051.361,0,.075a1.412,1.412,0,0,0,.955,1.682,1.376,1.376,0,0,0,1.682-.955,42.007,42.007,0,0,0,.887-6,7.676,7.676,0,0,0-.573-3,11.07,11.07,0,0,0-1.922-2.788,26.262,26.262,0,0,0-4.794-4.33c-1.679-1.165-3.8-1.988-5.822-1.228a4.545,4.545,0,0,0-3.124,4.851,1.377,1.377,0,0,0,1.682.955,1.4,1.4,0,0,0,.955-1.682Z" transform="translate(-75.099 -96.194)" fill="#211715"/>
    <path id="パス_87" data-name="パス 87" d="M226.557,260.063c-9.068-3.677-18.134-7.368-27.132-11.212-1.818-.777-3.636-1.558-5.433-2.381a1.4,1.4,0,0,0-1.871.491c-2.02,3.488-3.917,7.05-5.761,10.633-1.672,3.247-3.338,6.514-4.74,9.89a1.372,1.372,0,0,0,.627,1.544,175.615,175.615,0,0,0,29.4,14.248c2.934,1.114,5.9,2.138,8.915,3.019a1.369,1.369,0,0,0,.727-2.637,161.567,161.567,0,0,1-30.743-13.039c-2.34-1.257-4.653-2.564-6.917-3.954l.627,1.544q.09-.215,0-.009c.033-.079.067-.157.1-.235l.216-.5q.21-.472.426-.943c.354-.771.718-1.538,1.088-2.3.883-1.826,1.8-3.637,2.727-5.439,1.815-3.52,3.68-7.019,5.665-10.446l-1.871.49c8.563,3.921,17.348,7.392,26.064,10.955q3.575,1.461,7.155,2.913a1.376,1.376,0,0,0,1.682-.955,1.4,1.4,0,0,0-.955-1.682Z" transform="translate(-78.132 -105.979)" fill="#211715"/>
    <path id="パス_88" data-name="パス 88" d="M164.118,121.3c1.63,1.6,4.209,2.062,6.4,2.061s4.767-.464,6.4-2.061c1.26-1.233-.674-3.166-1.934-1.934-.054.053-.332.292-.153.146s0,0-.049.031c-.073.047-.145.1-.219.142-.141.087-.285.166-.434.24-.1.05-.2.1-.3.141.185-.081.04-.017-.066.021a9.182,9.182,0,0,1-3.243.537,8.9,8.9,0,0,1-3.185-.513c-.029-.011-.406-.171-.124-.043q-.128-.057-.253-.118c-.164-.08-.325-.171-.481-.264-.118-.073-.228-.166-.348-.235.354.2.031.017-.072-.085-1.258-1.232-3.194.7-1.934,1.934Z" transform="translate(-70.446 -51.19)" fill="#211715"/>
    <path id="パス_89" data-name="パス 89" d="M173.973,99.756a26.116,26.116,0,0,1,.611,2.8l-.049-.363a1.684,1.684,0,0,1,.01.386l.049-.363a.923.923,0,0,1-.043.174l.138-.327a.683.683,0,0,1-.061.114l.214-.276a.592.592,0,0,1-.091.09l.276-.214a1.824,1.824,0,0,1-.221.117l.326-.138a1.584,1.584,0,0,1-.373.109l.363-.048a1.5,1.5,0,0,1-.35,0l.363.048c-.132-.018-.262-.05-.394-.068a1.513,1.513,0,0,0-1.053.138,1.367,1.367,0,0,0-.49,1.871,1.31,1.31,0,0,0,.817.627c.3.04.581.114.881.128a2.8,2.8,0,0,0,1.29-.306,1.849,1.849,0,0,0,1.029-1.22,3.087,3.087,0,0,0-.013-1.322c-.153-.9-.361-1.793-.592-2.678a1.367,1.367,0,0,0-2.637.727Z" transform="translate(-74.449 -42.179)" fill="#211715"/>
    <path id="パス_90" data-name="パス 90" d="M148.493,85.47c-.467,1.518-.163,5.009,2.712,5.306,3.8-.022,4-4.244,2.723-6.228C152.882,82.923,149.8,82.247,148.493,85.47Z" transform="translate(-63.822 -35.795)" fill="#211715"/>
    <path id="パス_91" data-name="パス 91" d="M197.4,85.47c.467,1.518.163,5.009-2.712,5.306-3.8-.023-4-4.244-2.723-6.228C193.016,82.923,196.1,82.247,197.4,85.47Z" transform="translate(-82.302 -35.795)" fill="#211715"/>
  </g>
</svg>
