<svg xmlns="http://www.w3.org/2000/svg" width="41.06" height="41.002" viewBox="0 0 41.06 41.002">
  <path id="phone" d="M37.807,27.7c-2.368-1.9-4.267-2.777-5.979-2.764-2.247,0-3.678,1.5-4.949,2.8l-.308.31c-.4,0-2.207-.445-7.089-5.3s-5.35-6.741-5.35-7.065l.321-.324c2.675-2.7,4.481-5.326-.12-11.015C12.58,2.208,10.828,1.17,9.009,1.17c-2.528,0-4.334,1.955-5.778,3.519l-.669.7C.622,7.3.555,11.08,2.321,15.772a43.272,43.272,0,0,0,9.938,14.373C20.459,38.3,28.31,41.173,32.591,41.16a5.977,5.977,0,0,0,4.361-1.537l.7-.674c1.565-1.524,3.518-3.425,3.4-6.067A7.247,7.247,0,0,0,37.807,27.7Zm-2.568,8.737-.749.742a2.659,2.659,0,0,1-1.913.485c-3.879,0-10.915-3.074-17.9-10A39.523,39.523,0,0,1,5.571,14.491C4.1,10.648,4.408,8.41,5,7.83l.722-.769c1.03-1.119,2.22-2.4,3.29-2.4s1.966,1.025,2.675,1.9c2.983,3.681,2.327,4.355.348,6.337l-.4.418a3.236,3.236,0,0,0-.923,2.346c-.027,1.456.709,3.964,6.327,9.546s8.026,6.31,9.564,6.31h0a3.156,3.156,0,0,0,2.354-.917l.415-.418c1.07-1.119,1.725-1.753,2.475-1.753s1.739.351,3.826,2.009c.856.688,1.873,1.7,1.926,2.616S36.363,35.349,35.239,36.441Z" transform="translate(-0.488 -0.67)" stroke="#707070" stroke-width="1"/>
</svg>
