<svg xmlns="http://www.w3.org/2000/svg" width="38.21" height="50" viewBox="0 0 38.21 50">
  <g id="brooks-icons_pindrop" transform="translate(-3.742 0.08)">
    <path id="パス_163" data-name="パス 163" d="M41.925,19A19.077,19.077,0,1,0,3.77,19a11,11,0,0,0,.2,3.024A19.311,19.311,0,0,0,6.123,28.38c2.7,5.954,7.575,12.8,14.4,20.433a3.06,3.06,0,0,0,4.645.078C32,41.176,36.875,34.334,39.571,28.38a19.311,19.311,0,0,0,2.151-6.359A11,11,0,0,0,41.925,19Zm-3.289,2.494a15.586,15.586,0,0,1-1.855,5.471c-2.026,4.458-6.047,10.91-13.934,19.779C14.961,37.9,10.94,31.419,8.913,26.962a15.929,15.929,0,0,1-1.87-5.471,6.983,6.983,0,0,1-.156-2.307,15.96,15.96,0,0,1,31.92,0,6.811,6.811,0,0,1-.171,2.307Z" transform="translate(0 0)" fill="#21a937"/>
    <path id="パス_164" data-name="パス 164" d="M16,7.59a4.69,4.69,0,1,0,4.69,4.69A4.69,4.69,0,0,0,16,7.59ZM16,16a3.69,3.69,0,1,1,3.69-3.69A3.69,3.69,0,0,1,16,16Z" transform="translate(6.847 6.055)" fill="#21a937"/>
  </g>
</svg>
